<?xml version="1.0" encoding="ISO-8859-1"?>

<!DOCTYPE svg PUBLIC '-//W3C//DTD SVG 1.0//EN' 'http://www.w3.org/TR/2001/REC-SVG-20010904/DTD/svg10.dtd'>
<svg height="97" style="color-interpolation:auto; color-rendering:auto; fill:black; fill-opacity:1; font-family:&apos;Dialog&apos;; font-size:12; font-style:normal; font-weight:normal; image-rendering:auto; shape-rendering:auto; stroke:black; stroke-dasharray:none; stroke-dashoffset:0; stroke-linecap:square; stroke-linejoin:miter; stroke-miterlimit:10; stroke-opacity:1; stroke-width:1; text-rendering:auto;" width="720" xmlns="http://www.w3.org/2000/svg" xmlns:xlink="http://www.w3.org/1999/xlink">
  <!--Generated by the Batik Graphics2D SVG Generator-->
  <defs id="genericDefs" />
  <g>
    <g style="fill:white; font-family:serif; stroke:white;">
      <rect height="125" style="stroke:none;" width="763" x="0" y="0" />
      <text style="fill:black; font-size:14; stroke:none;" x="30" xml:space="preserve" y="10">attribution</text>
      <line style="fill:none; stroke:black;" x1="34" x2="50" y1="57" y2="57" />
      <line style="fill:none; stroke:black;" x1="50" x2="74" y1="57" y2="57" />
      <line style="fill:none; stroke:black;" x1="210" x2="186" y1="57" y2="57" />
      <line style="fill:none; stroke:black;" x1="74" x2="82" y1="57" y2="57" />
      <line style="fill:none; stroke:black;" x1="187" x2="178" y1="57" y2="57" />
      <path d="M66 65 A8 8 0 0 0 58 57" style="fill:none; stroke:black;" />
      <path d="M202 57 A8 8 0 0 0 194 65" style="fill:none; stroke:black;" />
      <rect height="24" style="fill:none; stroke:black;" width="96" x="82" y="45" />
      <text style="fill:black; stroke:none;" x="84" xml:space="preserve" y="65">contributor</text>
      <line style="fill:none; stroke:black;" x1="82" x2="82" y1="57" y2="57" />
      <polygon points=" 82 57 76 54 76 60" style="fill:black; stroke:none;" />
      <line style="fill:none; stroke:black;" x1="74" x2="114" y1="87" y2="87" />
      <line style="fill:none; stroke:black;" x1="187" x2="146" y1="87" y2="87" />
      <path d="M66 79 A8 8 0 0 0 74 87" style="fill:none; stroke:black;" />
      <line style="fill:none; stroke:black;" x1="66" x2="66" y1="65" y2="80" />
      <path d="M186 87 A8 8 0 0 0 194 79" style="fill:none; stroke:black;" />
      <line style="fill:none; stroke:black;" x1="194" x2="194" y1="65" y2="80" />
      <line style="fill:none; stroke:black;" x1="114" x2="146" y1="87" y2="87" />
      <line style="fill:none; stroke:black;" x1="210" x2="234" y1="57" y2="57" />
      <line style="fill:none; stroke:black;" x1="365" x2="341" y1="57" y2="57" />
      <line style="fill:none; stroke:black;" x1="234" x2="242" y1="57" y2="57" />
      <line style="fill:none; stroke:black;" x1="342" x2="333" y1="57" y2="57" />
      <path d="M226 65 A8 8 0 0 0 218 57" style="fill:none; stroke:black;" />
      <path d="M357 57 A8 8 0 0 0 349 65" style="fill:none; stroke:black;" />
      <rect height="24" style="fill:none; stroke:black;" width="91" x="242" y="45" />
      <text style="fill:black; stroke:none;" x="244" xml:space="preserve" y="65">confidence</text>
      <line style="fill:none; stroke:black;" x1="242" x2="242" y1="57" y2="57" />
      <polygon points=" 242 57 236 54 236 60" style="fill:black; stroke:none;" />
      <line style="fill:none; stroke:black;" x1="234" x2="271" y1="87" y2="87" />
      <line style="fill:none; stroke:black;" x1="342" x2="303" y1="87" y2="87" />
      <path d="M226 79 A8 8 0 0 0 234 87" style="fill:none; stroke:black;" />
      <line style="fill:none; stroke:black;" x1="226" x2="226" y1="65" y2="80" />
      <path d="M341 87 A8 8 0 0 0 349 79" style="fill:none; stroke:black;" />
      <line style="fill:none; stroke:black;" x1="349" x2="349" y1="65" y2="80" />
      <line style="fill:none; stroke:black;" x1="271" x2="303" y1="87" y2="87" />
      <line style="fill:none; stroke:black;" x1="365" x2="389" y1="57" y2="57" />
      <line style="fill:none; stroke:black;" x1="503" x2="479" y1="57" y2="57" />
      <line style="fill:none; stroke:black;" x1="389" x2="397" y1="57" y2="57" />
      <line style="fill:none; stroke:black;" x1="480" x2="471" y1="57" y2="57" />
      <path d="M381 65 A8 8 0 0 0 373 57" style="fill:none; stroke:black;" />
      <path d="M495 57 A8 8 0 0 0 487 65" style="fill:none; stroke:black;" />
      <rect height="24" style="fill:none; stroke:black;" width="74" x="397" y="45" />
      <text style="fill:black; stroke:none;" x="399" xml:space="preserve" y="65">modified</text>
      <line style="fill:none; stroke:black;" x1="397" x2="397" y1="57" y2="57" />
      <polygon points=" 397 57 391 54 391 60" style="fill:black; stroke:none;" />
      <line style="fill:none; stroke:black;" x1="389" x2="418" y1="87" y2="87" />
      <line style="fill:none; stroke:black;" x1="480" x2="450" y1="87" y2="87" />
      <path d="M381 79 A8 8 0 0 0 389 87" style="fill:none; stroke:black;" />
      <line style="fill:none; stroke:black;" x1="381" x2="381" y1="65" y2="80" />
      <path d="M479 87 A8 8 0 0 0 487 79" style="fill:none; stroke:black;" />
      <line style="fill:none; stroke:black;" x1="487" x2="487" y1="65" y2="80" />
      <line style="fill:none; stroke:black;" x1="418" x2="450" y1="87" y2="87" />
      <line style="fill:none; stroke:black;" x1="503" x2="527" y1="57" y2="57" />
      <line style="fill:none; stroke:black;" x1="699" x2="675" y1="57" y2="57" />
      <line style="fill:none; stroke:black;" x1="527" x2="535" y1="57" y2="57" />
      <line style="fill:none; stroke:black;" x1="676" x2="667" y1="57" y2="57" />
      <path d="M519 65 A8 8 0 0 0 511 57" style="fill:none; stroke:black;" />
      <path d="M691 57 A8 8 0 0 0 683 65" style="fill:none; stroke:black;" />
      <rect height="24" style="fill:none; stroke:black;" width="132" x="535" y="45" />
      <text style="fill:black; stroke:none;" x="537" xml:space="preserve" y="65">proofStatement</text>
      <line style="fill:none; stroke:black;" x1="535" x2="535" y1="57" y2="57" />
      <polygon points=" 535 57 529 54 529 60" style="fill:black; stroke:none;" />
      <line style="fill:none; stroke:black;" x1="527" x2="585" y1="87" y2="87" />
      <line style="fill:none; stroke:black;" x1="676" x2="617" y1="87" y2="87" />
      <path d="M519 79 A8 8 0 0 0 527 87" style="fill:none; stroke:black;" />
      <line style="fill:none; stroke:black;" x1="519" x2="519" y1="65" y2="80" />
      <path d="M675 87 A8 8 0 0 0 683 79" style="fill:none; stroke:black;" />
      <line style="fill:none; stroke:black;" x1="683" x2="683" y1="65" y2="80" />
      <line style="fill:none; stroke:black;" x1="585" x2="617" y1="87" y2="87" />
      <line style="fill:none; stroke:black;" x1="699" x2="707" y1="57" y2="57" />
      <line style="fill:none; stroke:black;" x1="710" x2="710" y1="57" y2="57" />
      <polygon points=" 710 57 704 54 704 60" style="fill:black; stroke:none;" />
    </g>
  </g>
</svg>
