<?xml version="1.0" encoding="ISO-8859-1"?>

<!DOCTYPE svg PUBLIC '-//W3C//DTD SVG 1.0//EN' 'http://www.w3.org/TR/2001/REC-SVG-20010904/DTD/svg10.dtd'>
<svg height="97" style="color-interpolation:auto; color-rendering:auto; fill:black; fill-opacity:1; font-family:&apos;Dialog&apos;; font-size:12; font-style:normal; font-weight:normal; image-rendering:auto; shape-rendering:auto; stroke:black; stroke-dasharray:none; stroke-dashoffset:0; stroke-linecap:square; stroke-linejoin:miter; stroke-miterlimit:10; stroke-opacity:1; stroke-width:1; text-rendering:auto;" width="592" xmlns="http://www.w3.org/2000/svg" xmlns:xlink="http://www.w3.org/1999/xlink">
  <!--Generated by the Batik Graphics2D SVG Generator-->
  <defs id="genericDefs" />
  <g>
    <g style="fill:white; font-family:serif; stroke:white;">
      <rect height="125" style="stroke:none;" width="635" x="0" y="0" />
      <text style="fill:black; font-size:14; stroke:none;" x="30" xml:space="preserve" y="10">Description</text>
      <line style="fill:none; stroke:black;" x1="34" x2="50" y1="57" y2="57" />
      <line style="fill:none; stroke:black;" x1="50" x2="74" y1="57" y2="57" />
      <line style="fill:none; stroke:black;" x1="146" x2="122" y1="57" y2="57" />
      <line style="fill:none; stroke:black;" x1="74" x2="89" y1="57" y2="57" />
      <line style="fill:none; stroke:black;" x1="123" x2="107" y1="57" y2="57" />
      <path d="M66 65 A8 8 0 0 0 58 57" style="fill:none; stroke:black;" />
      <path d="M138 57 A8 8 0 0 0 130 65" style="fill:none; stroke:black;" />
      <rect height="24" style="fill:none; stroke:black;" width="18" x="89" y="45" />
      <text style="fill:black; stroke:none;" x="91" xml:space="preserve" y="65">id</text>
      <line style="fill:none; stroke:black;" x1="89" x2="89" y1="57" y2="57" />
      <polygon points=" 89 57 83 54 83 60" style="fill:black; stroke:none;" />
      <line style="fill:none; stroke:black;" x1="74" x2="82" y1="87" y2="87" />
      <line style="fill:none; stroke:black;" x1="123" x2="114" y1="87" y2="87" />
      <path d="M66 79 A8 8 0 0 0 74 87" style="fill:none; stroke:black;" />
      <line style="fill:none; stroke:black;" x1="66" x2="66" y1="65" y2="80" />
      <path d="M122 87 A8 8 0 0 0 130 79" style="fill:none; stroke:black;" />
      <line style="fill:none; stroke:black;" x1="130" x2="130" y1="65" y2="80" />
      <line style="fill:none; stroke:black;" x1="82" x2="114" y1="87" y2="87" />
      <line style="fill:none; stroke:black;" x1="146" x2="170" y1="57" y2="57" />
      <line style="fill:none; stroke:black;" x1="248" x2="224" y1="57" y2="57" />
      <line style="fill:none; stroke:black;" x1="170" x2="178" y1="57" y2="57" />
      <line style="fill:none; stroke:black;" x1="225" x2="216" y1="57" y2="57" />
      <path d="M162 65 A8 8 0 0 0 154 57" style="fill:none; stroke:black;" />
      <path d="M240 57 A8 8 0 0 0 232 65" style="fill:none; stroke:black;" />
      <rect height="24" style="fill:none; stroke:black;" width="38" x="178" y="45" />
      <text style="fill:black; stroke:none;" x="180" xml:space="preserve" y="65">type</text>
      <line style="fill:none; stroke:black;" x1="178" x2="178" y1="57" y2="57" />
      <polygon points=" 178 57 172 54 172 60" style="fill:black; stroke:none;" />
      <line style="fill:none; stroke:black;" x1="170" x2="181" y1="87" y2="87" />
      <line style="fill:none; stroke:black;" x1="225" x2="213" y1="87" y2="87" />
      <path d="M162 79 A8 8 0 0 0 170 87" style="fill:none; stroke:black;" />
      <line style="fill:none; stroke:black;" x1="162" x2="162" y1="65" y2="80" />
      <path d="M224 87 A8 8 0 0 0 232 79" style="fill:none; stroke:black;" />
      <line style="fill:none; stroke:black;" x1="232" x2="232" y1="65" y2="80" />
      <line style="fill:none; stroke:black;" x1="181" x2="213" y1="87" y2="87" />
      <line style="fill:none; stroke:black;" x1="248" x2="272" y1="57" y2="57" />
      <line style="fill:none; stroke:black;" x1="361" x2="337" y1="57" y2="57" />
      <line style="fill:none; stroke:black;" x1="272" x2="280" y1="57" y2="57" />
      <line style="fill:none; stroke:black;" x1="338" x2="329" y1="57" y2="57" />
      <path d="M264 65 A8 8 0 0 0 256 57" style="fill:none; stroke:black;" />
      <path d="M353 57 A8 8 0 0 0 345 65" style="fill:none; stroke:black;" />
      <rect height="24" style="fill:none; stroke:black;" width="49" x="280" y="45" />
      <text style="fill:black; stroke:none;" x="282" xml:space="preserve" y="65">about</text>
      <line style="fill:none; stroke:black;" x1="280" x2="280" y1="57" y2="57" />
      <polygon points=" 280 57 274 54 274 60" style="fill:black; stroke:none;" />
      <line style="fill:none; stroke:black;" x1="272" x2="288" y1="87" y2="87" />
      <line style="fill:none; stroke:black;" x1="338" x2="320" y1="87" y2="87" />
      <path d="M264 79 A8 8 0 0 0 272 87" style="fill:none; stroke:black;" />
      <line style="fill:none; stroke:black;" x1="264" x2="264" y1="65" y2="80" />
      <path d="M337 87 A8 8 0 0 0 345 79" style="fill:none; stroke:black;" />
      <line style="fill:none; stroke:black;" x1="345" x2="345" y1="65" y2="80" />
      <line style="fill:none; stroke:black;" x1="288" x2="320" y1="87" y2="87" />
      <path d="M377 66 A8 8 0 0 0 385 74" style="fill:none; stroke:black;" />
      <path d="M385 57 A8 8 0 0 0 377 65" style="fill:none; stroke:black;" />
      <path d="M547 74 A8 8 0 0 0 555 66" style="fill:none; stroke:black;" />
      <path d="M555 65 A8 8 0 0 0 547 57" style="fill:none; stroke:black;" />
      <line style="fill:none; stroke:black;" x1="377" x2="377" y1="65" y2="67" />
      <line style="fill:none; stroke:black;" x1="555" x2="555" y1="65" y2="67" />
      <line style="fill:none; stroke:black;" x1="384" x2="393" y1="74" y2="74" />
      <line style="fill:none; stroke:black;" x1="539" x2="548" y1="74" y2="74" />
      <line style="fill:none; stroke:black;" x1="361" x2="571" y1="57" y2="57" />
      <rect height="24" style="fill:none; stroke:black;" width="146" x="393" y="62" />
      <text style="fill:black; stroke:none;" x="395" xml:space="preserve" y="82">dublin_core_term</text>
      <line style="fill:none; stroke:black;" x1="539" x2="539" y1="74" y2="74" />
      <polygon points=" 539 74 545 77 545 71" style="fill:black; stroke:none;" />
      <line style="fill:none; stroke:black;" x1="571" x2="579" y1="57" y2="57" />
      <line style="fill:none; stroke:black;" x1="582" x2="582" y1="57" y2="57" />
      <polygon points=" 582 57 576 54 576 60" style="fill:black; stroke:none;" />
    </g>
  </g>
</svg>
