<?xml version="1.0" encoding="ISO-8859-1"?>

<!DOCTYPE svg PUBLIC '-//W3C//DTD SVG 1.0//EN' 'http://www.w3.org/TR/2001/REC-SVG-20010904/DTD/svg10.dtd'>
<svg height="97" style="color-interpolation:auto; color-rendering:auto; fill:black; fill-opacity:1; font-family:&apos;Dialog&apos;; font-size:12; font-style:normal; font-weight:normal; image-rendering:auto; shape-rendering:auto; stroke:black; stroke-dasharray:none; stroke-dashoffset:0; stroke-linecap:square; stroke-linejoin:miter; stroke-miterlimit:10; stroke-opacity:1; stroke-width:1; text-rendering:auto;" width="583" xmlns="http://www.w3.org/2000/svg" xmlns:xlink="http://www.w3.org/1999/xlink">
  <!--Generated by the Batik Graphics2D SVG Generator-->
  <defs id="genericDefs" />
  <g>
    <g style="fill:white; font-family:serif; stroke:white;">
      <rect height="125" style="stroke:none;" width="626" x="0" y="0" />
      <text style="fill:black; font-size:14; stroke:none;" x="30" xml:space="preserve" y="10">SourceReference</text>
      <line style="fill:none; stroke:black;" x1="34" x2="50" y1="57" y2="57" />
      <line style="fill:none; stroke:black;" x1="50" x2="74" y1="57" y2="57" />
      <line style="fill:none; stroke:black;" x1="146" x2="122" y1="57" y2="57" />
      <line style="fill:none; stroke:black;" x1="74" x2="89" y1="57" y2="57" />
      <line style="fill:none; stroke:black;" x1="123" x2="107" y1="57" y2="57" />
      <path d="M66 65 A8 8 0 0 0 58 57" style="fill:none; stroke:black;" />
      <path d="M138 57 A8 8 0 0 0 130 65" style="fill:none; stroke:black;" />
      <rect height="24" style="fill:none; stroke:black;" width="18" x="89" y="45" />
      <text style="fill:black; stroke:none;" x="91" xml:space="preserve" y="65">id</text>
      <line style="fill:none; stroke:black;" x1="89" x2="89" y1="57" y2="57" />
      <polygon points=" 89 57 83 54 83 60" style="fill:black; stroke:none;" />
      <line style="fill:none; stroke:black;" x1="74" x2="82" y1="87" y2="87" />
      <line style="fill:none; stroke:black;" x1="123" x2="114" y1="87" y2="87" />
      <path d="M66 79 A8 8 0 0 0 74 87" style="fill:none; stroke:black;" />
      <line style="fill:none; stroke:black;" x1="66" x2="66" y1="65" y2="80" />
      <path d="M122 87 A8 8 0 0 0 130 79" style="fill:none; stroke:black;" />
      <line style="fill:none; stroke:black;" x1="130" x2="130" y1="65" y2="80" />
      <line style="fill:none; stroke:black;" x1="82" x2="114" y1="87" y2="87" />
      <line style="fill:none; stroke:black;" x1="146" x2="170" y1="57" y2="57" />
      <line style="fill:none; stroke:black;" x1="248" x2="224" y1="57" y2="57" />
      <line style="fill:none; stroke:black;" x1="170" x2="178" y1="57" y2="57" />
      <line style="fill:none; stroke:black;" x1="225" x2="216" y1="57" y2="57" />
      <path d="M162 65 A8 8 0 0 0 154 57" style="fill:none; stroke:black;" />
      <path d="M240 57 A8 8 0 0 0 232 65" style="fill:none; stroke:black;" />
      <rect height="24" style="fill:none; stroke:black;" width="38" x="178" y="45" />
      <text style="fill:black; stroke:none;" x="180" xml:space="preserve" y="65">type</text>
      <line style="fill:none; stroke:black;" x1="178" x2="178" y1="57" y2="57" />
      <polygon points=" 178 57 172 54 172 60" style="fill:black; stroke:none;" />
      <line style="fill:none; stroke:black;" x1="170" x2="181" y1="87" y2="87" />
      <line style="fill:none; stroke:black;" x1="225" x2="213" y1="87" y2="87" />
      <path d="M162 79 A8 8 0 0 0 170 87" style="fill:none; stroke:black;" />
      <line style="fill:none; stroke:black;" x1="162" x2="162" y1="65" y2="80" />
      <path d="M224 87 A8 8 0 0 0 232 79" style="fill:none; stroke:black;" />
      <line style="fill:none; stroke:black;" x1="232" x2="232" y1="65" y2="80" />
      <line style="fill:none; stroke:black;" x1="181" x2="213" y1="87" y2="87" />
      <line style="fill:none; stroke:black;" x1="248" x2="272" y1="57" y2="57" />
      <line style="fill:none; stroke:black;" x1="407" x2="383" y1="57" y2="57" />
      <line style="fill:none; stroke:black;" x1="272" x2="280" y1="57" y2="57" />
      <line style="fill:none; stroke:black;" x1="384" x2="375" y1="57" y2="57" />
      <path d="M264 65 A8 8 0 0 0 256 57" style="fill:none; stroke:black;" />
      <path d="M399 57 A8 8 0 0 0 391 65" style="fill:none; stroke:black;" />
      <rect height="24" style="fill:none; stroke:black;" width="95" x="280" y="45" />
      <text style="fill:black; stroke:none;" x="282" xml:space="preserve" y="65">description</text>
      <line style="fill:none; stroke:black;" x1="280" x2="280" y1="57" y2="57" />
      <polygon points=" 280 57 274 54 274 60" style="fill:black; stroke:none;" />
      <line style="fill:none; stroke:black;" x1="272" x2="311" y1="87" y2="87" />
      <line style="fill:none; stroke:black;" x1="384" x2="343" y1="87" y2="87" />
      <path d="M264 79 A8 8 0 0 0 272 87" style="fill:none; stroke:black;" />
      <line style="fill:none; stroke:black;" x1="264" x2="264" y1="65" y2="80" />
      <path d="M383 87 A8 8 0 0 0 391 79" style="fill:none; stroke:black;" />
      <line style="fill:none; stroke:black;" x1="391" x2="391" y1="65" y2="80" />
      <line style="fill:none; stroke:black;" x1="311" x2="343" y1="87" y2="87" />
      <line style="fill:none; stroke:black;" x1="407" x2="431" y1="57" y2="57" />
      <line style="fill:none; stroke:black;" x1="562" x2="538" y1="57" y2="57" />
      <line style="fill:none; stroke:black;" x1="431" x2="439" y1="57" y2="57" />
      <line style="fill:none; stroke:black;" x1="539" x2="530" y1="57" y2="57" />
      <path d="M423 65 A8 8 0 0 0 415 57" style="fill:none; stroke:black;" />
      <path d="M554 57 A8 8 0 0 0 546 65" style="fill:none; stroke:black;" />
      <rect height="24" style="fill:none; stroke:black;" width="91" x="439" y="45" />
      <text style="fill:black; stroke:none;" x="441" xml:space="preserve" y="65">attribution</text>
      <line style="fill:none; stroke:black;" x1="439" x2="439" y1="57" y2="57" />
      <polygon points=" 439 57 433 54 433 60" style="fill:black; stroke:none;" />
      <line style="fill:none; stroke:black;" x1="431" x2="468" y1="87" y2="87" />
      <line style="fill:none; stroke:black;" x1="539" x2="500" y1="87" y2="87" />
      <path d="M423 79 A8 8 0 0 0 431 87" style="fill:none; stroke:black;" />
      <line style="fill:none; stroke:black;" x1="423" x2="423" y1="65" y2="80" />
      <path d="M538 87 A8 8 0 0 0 546 79" style="fill:none; stroke:black;" />
      <line style="fill:none; stroke:black;" x1="546" x2="546" y1="65" y2="80" />
      <line style="fill:none; stroke:black;" x1="468" x2="500" y1="87" y2="87" />
      <line style="fill:none; stroke:black;" x1="562" x2="570" y1="57" y2="57" />
      <line style="fill:none; stroke:black;" x1="573" x2="573" y1="57" y2="57" />
      <polygon points=" 573 57 567 54 567 60" style="fill:black; stroke:none;" />
    </g>
  </g>
</svg>
