<?xml version="1.0" encoding="ISO-8859-1"?>

<!DOCTYPE svg PUBLIC '-//W3C//DTD SVG 1.0//EN' 'http://www.w3.org/TR/2001/REC-SVG-20010904/DTD/svg10.dtd'>
<svg height="96" style="color-interpolation:auto; color-rendering:auto; fill:black; fill-opacity:1; font-family:&apos;Dialog&apos;; font-size:12; font-style:normal; font-weight:normal; image-rendering:auto; shape-rendering:auto; stroke:black; stroke-dasharray:none; stroke-dashoffset:0; stroke-linecap:square; stroke-linejoin:miter; stroke-miterlimit:10; stroke-opacity:1; stroke-width:1; text-rendering:auto;" width="472" xmlns="http://www.w3.org/2000/svg" xmlns:xlink="http://www.w3.org/1999/xlink">
  <!--Generated by the Batik Graphics2D SVG Generator-->
  <defs id="genericDefs" />
  <g>
    <g style="fill:white; font-family:serif; stroke:white;">
      <rect height="112" style="stroke:none;" width="515" x="0" y="0" />
      <text style="fill:black; font-size:14; stroke:none;" x="30" xml:space="preserve" y="10">conclusion_properties</text>
      <line style="fill:none; stroke:black;" x1="34" x2="50" y1="57" y2="57" />
      <rect height="24" style="fill:none; stroke:black;" width="280" x="50" y="45" />
      <text style="fill:black; stroke:none;" x="52" xml:space="preserve" y="65">genealogical_resource_properties</text>
      <line style="fill:none; stroke:black;" x1="50" x2="50" y1="57" y2="57" />
      <polygon points=" 50 57 44 54 44 60" style="fill:black; stroke:none;" />
      <path d="M346 66 A8 8 0 0 0 354 74" style="fill:none; stroke:black;" />
      <path d="M354 57 A8 8 0 0 0 346 65" style="fill:none; stroke:black;" />
      <path d="M427 74 A8 8 0 0 0 435 66" style="fill:none; stroke:black;" />
      <path d="M435 65 A8 8 0 0 0 427 57" style="fill:none; stroke:black;" />
      <line style="fill:none; stroke:black;" x1="346" x2="346" y1="65" y2="67" />
      <line style="fill:none; stroke:black;" x1="435" x2="435" y1="65" y2="67" />
      <line style="fill:none; stroke:black;" x1="353" x2="362" y1="74" y2="74" />
      <line style="fill:none; stroke:black;" x1="419" x2="428" y1="74" y2="74" />
      <line style="fill:none; stroke:black;" x1="330" x2="451" y1="57" y2="57" />
      <rect height="24" style="fill:none; stroke:black;" width="57" x="362" y="62" />
      <text style="fill:black; stroke:none;" x="364" xml:space="preserve" y="82">source</text>
      <line style="fill:none; stroke:black;" x1="419" x2="419" y1="74" y2="74" />
      <polygon points=" 419 74 425 77 425 71" style="fill:black; stroke:none;" />
      <line style="fill:none; stroke:black;" x1="451" x2="459" y1="57" y2="57" />
      <line style="fill:none; stroke:black;" x1="462" x2="462" y1="57" y2="57" />
      <polygon points=" 462 57 456 54 456 60" style="fill:black; stroke:none;" />
    </g>
  </g>
</svg>
