<?xml version="1.0" encoding="ISO-8859-1"?>

<!DOCTYPE svg PUBLIC '-//W3C//DTD SVG 1.0//EN' 'http://www.w3.org/TR/2001/REC-SVG-20010904/DTD/svg10.dtd'>
<svg height="97" style="color-interpolation:auto; color-rendering:auto; fill:black; fill-opacity:1; font-family:&apos;Dialog&apos;; font-size:12; font-style:normal; font-weight:normal; image-rendering:auto; shape-rendering:auto; stroke:black; stroke-dasharray:none; stroke-dashoffset:0; stroke-linecap:square; stroke-linejoin:miter; stroke-miterlimit:10; stroke-opacity:1; stroke-width:1; text-rendering:auto;" width="770" xmlns="http://www.w3.org/2000/svg" xmlns:xlink="http://www.w3.org/1999/xlink">
  <!--Generated by the Batik Graphics2D SVG Generator-->
  <defs id="genericDefs" />
  <g>
    <g style="fill:white; font-family:serif; stroke:white;">
      <rect height="125" style="stroke:none;" width="813" x="0" y="0" />
      <text style="fill:black; font-size:14; stroke:none;" x="30" xml:space="preserve" y="10">fact</text>
      <line style="fill:none; stroke:black;" x1="34" x2="50" y1="57" y2="57" />
      <rect height="24" style="fill:none; stroke:black;" width="183" x="50" y="45" />
      <text style="fill:black; stroke:none;" x="52" xml:space="preserve" y="65">conclusion_properties</text>
      <line style="fill:none; stroke:black;" x1="50" x2="50" y1="57" y2="57" />
      <polygon points=" 50 57 44 54 44 60" style="fill:black; stroke:none;" />
      <line style="fill:none; stroke:black;" x1="233" x2="249" y1="57" y2="57" />
      <polygon points=" 249 57 243 54 243 60" style="fill:black; stroke:none;" />
      <rect height="24" style="fill:none; stroke:black;" width="38" x="249" y="45" />
      <text style="fill:black; stroke:none;" x="251" xml:space="preserve" y="65">type</text>
      <line style="fill:none; stroke:black;" x1="249" x2="249" y1="57" y2="57" />
      <polygon points=" 249 57 243 54 243 60" style="fill:black; stroke:none;" />
      <line style="fill:none; stroke:black;" x1="287" x2="311" y1="57" y2="57" />
      <line style="fill:none; stroke:black;" x1="389" x2="365" y1="57" y2="57" />
      <line style="fill:none; stroke:black;" x1="311" x2="319" y1="57" y2="57" />
      <line style="fill:none; stroke:black;" x1="366" x2="357" y1="57" y2="57" />
      <path d="M303 65 A8 8 0 0 0 295 57" style="fill:none; stroke:black;" />
      <path d="M381 57 A8 8 0 0 0 373 65" style="fill:none; stroke:black;" />
      <rect height="24" style="fill:none; stroke:black;" width="38" x="319" y="45" />
      <text style="fill:black; stroke:none;" x="321" xml:space="preserve" y="65">date</text>
      <line style="fill:none; stroke:black;" x1="319" x2="319" y1="57" y2="57" />
      <polygon points=" 319 57 313 54 313 60" style="fill:black; stroke:none;" />
      <line style="fill:none; stroke:black;" x1="311" x2="322" y1="87" y2="87" />
      <line style="fill:none; stroke:black;" x1="366" x2="354" y1="87" y2="87" />
      <path d="M303 79 A8 8 0 0 0 311 87" style="fill:none; stroke:black;" />
      <line style="fill:none; stroke:black;" x1="303" x2="303" y1="65" y2="80" />
      <path d="M365 87 A8 8 0 0 0 373 79" style="fill:none; stroke:black;" />
      <line style="fill:none; stroke:black;" x1="373" x2="373" y1="65" y2="80" />
      <line style="fill:none; stroke:black;" x1="322" x2="354" y1="87" y2="87" />
      <line style="fill:none; stroke:black;" x1="389" x2="413" y1="57" y2="57" />
      <line style="fill:none; stroke:black;" x1="499" x2="475" y1="57" y2="57" />
      <line style="fill:none; stroke:black;" x1="413" x2="421" y1="57" y2="57" />
      <line style="fill:none; stroke:black;" x1="476" x2="467" y1="57" y2="57" />
      <path d="M405 65 A8 8 0 0 0 397 57" style="fill:none; stroke:black;" />
      <path d="M491 57 A8 8 0 0 0 483 65" style="fill:none; stroke:black;" />
      <rect height="24" style="fill:none; stroke:black;" width="46" x="421" y="45" />
      <text style="fill:black; stroke:none;" x="423" xml:space="preserve" y="65">place</text>
      <line style="fill:none; stroke:black;" x1="421" x2="421" y1="57" y2="57" />
      <polygon points=" 421 57 415 54 415 60" style="fill:black; stroke:none;" />
      <line style="fill:none; stroke:black;" x1="413" x2="428" y1="87" y2="87" />
      <line style="fill:none; stroke:black;" x1="476" x2="460" y1="87" y2="87" />
      <path d="M405 79 A8 8 0 0 0 413 87" style="fill:none; stroke:black;" />
      <line style="fill:none; stroke:black;" x1="405" x2="405" y1="65" y2="80" />
      <path d="M475 87 A8 8 0 0 0 483 79" style="fill:none; stroke:black;" />
      <line style="fill:none; stroke:black;" x1="483" x2="483" y1="65" y2="80" />
      <line style="fill:none; stroke:black;" x1="428" x2="460" y1="87" y2="87" />
      <line style="fill:none; stroke:black;" x1="499" x2="523" y1="57" y2="57" />
      <line style="fill:none; stroke:black;" x1="629" x2="605" y1="57" y2="57" />
      <line style="fill:none; stroke:black;" x1="523" x2="531" y1="57" y2="57" />
      <line style="fill:none; stroke:black;" x1="606" x2="597" y1="57" y2="57" />
      <path d="M515 65 A8 8 0 0 0 507 57" style="fill:none; stroke:black;" />
      <path d="M621 57 A8 8 0 0 0 613 65" style="fill:none; stroke:black;" />
      <rect height="24" style="fill:none; stroke:black;" width="66" x="531" y="45" />
      <text style="fill:black; stroke:none;" x="533" xml:space="preserve" y="65">original</text>
      <line style="fill:none; stroke:black;" x1="531" x2="531" y1="57" y2="57" />
      <polygon points=" 531 57 525 54 525 60" style="fill:black; stroke:none;" />
      <line style="fill:none; stroke:black;" x1="523" x2="548" y1="87" y2="87" />
      <line style="fill:none; stroke:black;" x1="606" x2="580" y1="87" y2="87" />
      <path d="M515 79 A8 8 0 0 0 523 87" style="fill:none; stroke:black;" />
      <line style="fill:none; stroke:black;" x1="515" x2="515" y1="65" y2="80" />
      <path d="M605 87 A8 8 0 0 0 613 79" style="fill:none; stroke:black;" />
      <line style="fill:none; stroke:black;" x1="613" x2="613" y1="65" y2="80" />
      <line style="fill:none; stroke:black;" x1="548" x2="580" y1="87" y2="87" />
      <line style="fill:none; stroke:black;" x1="629" x2="653" y1="57" y2="57" />
      <line style="fill:none; stroke:black;" x1="749" x2="725" y1="57" y2="57" />
      <line style="fill:none; stroke:black;" x1="653" x2="661" y1="57" y2="57" />
      <line style="fill:none; stroke:black;" x1="726" x2="717" y1="57" y2="57" />
      <path d="M645 65 A8 8 0 0 0 637 57" style="fill:none; stroke:black;" />
      <path d="M741 57 A8 8 0 0 0 733 65" style="fill:none; stroke:black;" />
      <rect height="24" style="fill:none; stroke:black;" width="56" x="661" y="45" />
      <text style="fill:black; stroke:none;" x="663" xml:space="preserve" y="65">formal</text>
      <line style="fill:none; stroke:black;" x1="661" x2="661" y1="57" y2="57" />
      <polygon points=" 661 57 655 54 655 60" style="fill:black; stroke:none;" />
      <line style="fill:none; stroke:black;" x1="653" x2="673" y1="87" y2="87" />
      <line style="fill:none; stroke:black;" x1="726" x2="705" y1="87" y2="87" />
      <path d="M645 79 A8 8 0 0 0 653 87" style="fill:none; stroke:black;" />
      <line style="fill:none; stroke:black;" x1="645" x2="645" y1="65" y2="80" />
      <path d="M725 87 A8 8 0 0 0 733 79" style="fill:none; stroke:black;" />
      <line style="fill:none; stroke:black;" x1="733" x2="733" y1="65" y2="80" />
      <line style="fill:none; stroke:black;" x1="673" x2="705" y1="87" y2="87" />
      <line style="fill:none; stroke:black;" x1="749" x2="757" y1="57" y2="57" />
      <line style="fill:none; stroke:black;" x1="760" x2="760" y1="57" y2="57" />
      <polygon points=" 760 57 754 54 754 60" style="fill:black; stroke:none;" />
    </g>
  </g>
</svg>
