<?xml version="1.0" encoding="ISO-8859-1"?>

<!DOCTYPE svg PUBLIC '-//W3C//DTD SVG 1.0//EN' 'http://www.w3.org/TR/2001/REC-SVG-20010904/DTD/svg10.dtd'>
<svg height="97" style="color-interpolation:auto; color-rendering:auto; fill:black; fill-opacity:1; font-family:&apos;Dialog&apos;; font-size:12; font-style:normal; font-weight:normal; image-rendering:auto; shape-rendering:auto; stroke:black; stroke-dasharray:none; stroke-dashoffset:0; stroke-linecap:square; stroke-linejoin:miter; stroke-miterlimit:10; stroke-opacity:1; stroke-width:1; text-rendering:auto;" width="546" xmlns="http://www.w3.org/2000/svg" xmlns:xlink="http://www.w3.org/1999/xlink">
  <!--Generated by the Batik Graphics2D SVG Generator-->
  <defs id="genericDefs" />
  <g>
    <g style="fill:white; font-family:serif; stroke:white;">
      <rect height="125" style="stroke:none;" width="589" x="0" y="0" />
      <text style="fill:black; font-size:14; stroke:none;" x="30" xml:space="preserve" y="10">formal</text>
      <line style="fill:none; stroke:black;" x1="34" x2="50" y1="57" y2="57" />
      <line style="fill:none; stroke:black;" x1="50" x2="74" y1="57" y2="57" />
      <line style="fill:none; stroke:black;" x1="161" x2="137" y1="57" y2="57" />
      <line style="fill:none; stroke:black;" x1="74" x2="82" y1="57" y2="57" />
      <line style="fill:none; stroke:black;" x1="138" x2="129" y1="57" y2="57" />
      <path d="M66 65 A8 8 0 0 0 58 57" style="fill:none; stroke:black;" />
      <path d="M153 57 A8 8 0 0 0 145 65" style="fill:none; stroke:black;" />
      <rect height="24" style="fill:none; stroke:black;" width="47" x="82" y="45" />
      <text style="fill:black; stroke:none;" x="84" xml:space="preserve" y="65">value</text>
      <line style="fill:none; stroke:black;" x1="82" x2="82" y1="57" y2="57" />
      <polygon points=" 82 57 76 54 76 60" style="fill:black; stroke:none;" />
      <line style="fill:none; stroke:black;" x1="74" x2="89" y1="87" y2="87" />
      <line style="fill:none; stroke:black;" x1="138" x2="121" y1="87" y2="87" />
      <path d="M66 79 A8 8 0 0 0 74 87" style="fill:none; stroke:black;" />
      <line style="fill:none; stroke:black;" x1="66" x2="66" y1="65" y2="80" />
      <path d="M137 87 A8 8 0 0 0 145 79" style="fill:none; stroke:black;" />
      <line style="fill:none; stroke:black;" x1="145" x2="145" y1="65" y2="80" />
      <line style="fill:none; stroke:black;" x1="89" x2="121" y1="87" y2="87" />
      <line style="fill:none; stroke:black;" x1="161" x2="185" y1="57" y2="57" />
      <line style="fill:none; stroke:black;" x1="299" x2="275" y1="57" y2="57" />
      <line style="fill:none; stroke:black;" x1="185" x2="193" y1="57" y2="57" />
      <line style="fill:none; stroke:black;" x1="276" x2="267" y1="57" y2="57" />
      <path d="M177 65 A8 8 0 0 0 169 57" style="fill:none; stroke:black;" />
      <path d="M291 57 A8 8 0 0 0 283 65" style="fill:none; stroke:black;" />
      <rect height="24" style="fill:none; stroke:black;" width="74" x="193" y="45" />
      <text style="fill:black; stroke:none;" x="195" xml:space="preserve" y="65">datatype</text>
      <line style="fill:none; stroke:black;" x1="193" x2="193" y1="57" y2="57" />
      <polygon points=" 193 57 187 54 187 60" style="fill:black; stroke:none;" />
      <line style="fill:none; stroke:black;" x1="185" x2="214" y1="87" y2="87" />
      <line style="fill:none; stroke:black;" x1="276" x2="246" y1="87" y2="87" />
      <path d="M177 79 A8 8 0 0 0 185 87" style="fill:none; stroke:black;" />
      <line style="fill:none; stroke:black;" x1="177" x2="177" y1="65" y2="80" />
      <path d="M275 87 A8 8 0 0 0 283 79" style="fill:none; stroke:black;" />
      <line style="fill:none; stroke:black;" x1="283" x2="283" y1="65" y2="80" />
      <line style="fill:none; stroke:black;" x1="214" x2="246" y1="87" y2="87" />
      <line style="fill:none; stroke:black;" x1="299" x2="323" y1="57" y2="57" />
      <line style="fill:none; stroke:black;" x1="525" x2="501" y1="57" y2="57" />
      <line style="fill:none; stroke:black;" x1="323" x2="331" y1="57" y2="57" />
      <line style="fill:none; stroke:black;" x1="502" x2="493" y1="57" y2="57" />
      <path d="M315 65 A8 8 0 0 0 307 57" style="fill:none; stroke:black;" />
      <path d="M517 57 A8 8 0 0 0 509 65" style="fill:none; stroke:black;" />
      <rect height="24" style="fill:none; stroke:black;" width="162" x="331" y="45" />
      <text style="fill:black; stroke:none;" x="333" xml:space="preserve" y="65">resource_reference</text>
      <line style="fill:none; stroke:black;" x1="331" x2="331" y1="57" y2="57" />
      <polygon points=" 331 57 325 54 325 60" style="fill:black; stroke:none;" />
      <line style="fill:none; stroke:black;" x1="323" x2="396" y1="87" y2="87" />
      <line style="fill:none; stroke:black;" x1="502" x2="428" y1="87" y2="87" />
      <path d="M315 79 A8 8 0 0 0 323 87" style="fill:none; stroke:black;" />
      <line style="fill:none; stroke:black;" x1="315" x2="315" y1="65" y2="80" />
      <path d="M501 87 A8 8 0 0 0 509 79" style="fill:none; stroke:black;" />
      <line style="fill:none; stroke:black;" x1="509" x2="509" y1="65" y2="80" />
      <line style="fill:none; stroke:black;" x1="396" x2="428" y1="87" y2="87" />
      <line style="fill:none; stroke:black;" x1="525" x2="533" y1="57" y2="57" />
      <line style="fill:none; stroke:black;" x1="536" x2="536" y1="57" y2="57" />
      <polygon points=" 536 57 530 54 530 60" style="fill:black; stroke:none;" />
    </g>
  </g>
</svg>
