<?xml version="1.0" encoding="ISO-8859-1"?>

<!DOCTYPE svg PUBLIC '-//W3C//DTD SVG 1.0//EN' 'http://www.w3.org/TR/2001/REC-SVG-20010904/DTD/svg10.dtd'>
<svg height="79" style="color-interpolation:auto; color-rendering:auto; fill:black; fill-opacity:1; font-family:&apos;Dialog&apos;; font-size:12; font-style:normal; font-weight:normal; image-rendering:auto; shape-rendering:auto; stroke:black; stroke-dasharray:none; stroke-dashoffset:0; stroke-linecap:square; stroke-linejoin:miter; stroke-miterlimit:10; stroke-opacity:1; stroke-width:1; text-rendering:auto;" width="308" xmlns="http://www.w3.org/2000/svg" xmlns:xlink="http://www.w3.org/1999/xlink">
  <!--Generated by the Batik Graphics2D SVG Generator-->
  <defs id="genericDefs" />
  <g>
    <g style="fill:white; font-family:serif; stroke:white;">
      <rect height="99" style="stroke:none;" width="351" x="0" y="0" />
      <text style="fill:black; font-size:14; stroke:none;" x="30" xml:space="preserve" y="10">gender</text>
      <line style="fill:none; stroke:black;" x1="34" x2="50" y1="57" y2="57" />
      <rect height="24" style="fill:none; stroke:black;" width="183" x="50" y="45" />
      <text style="fill:black; stroke:none;" x="52" xml:space="preserve" y="65">conclusion_properties</text>
      <line style="fill:none; stroke:black;" x1="50" x2="50" y1="57" y2="57" />
      <polygon points=" 50 57 44 54 44 60" style="fill:black; stroke:none;" />
      <line style="fill:none; stroke:black;" x1="233" x2="249" y1="57" y2="57" />
      <polygon points=" 249 57 243 54 243 60" style="fill:black; stroke:none;" />
      <rect height="24" style="fill:none; stroke:black;" width="38" x="249" y="45" />
      <text style="fill:black; stroke:none;" x="251" xml:space="preserve" y="65">type</text>
      <line style="fill:none; stroke:black;" x1="249" x2="249" y1="57" y2="57" />
      <polygon points=" 249 57 243 54 243 60" style="fill:black; stroke:none;" />
      <line style="fill:none; stroke:black;" x1="287" x2="295" y1="57" y2="57" />
      <line style="fill:none; stroke:black;" x1="298" x2="298" y1="57" y2="57" />
      <polygon points=" 298 57 292 54 292 60" style="fill:black; stroke:none;" />
    </g>
  </g>
</svg>
