<?xml version="1.0" encoding="ISO-8859-1"?>

<!DOCTYPE svg PUBLIC '-//W3C//DTD SVG 1.0//EN' 'http://www.w3.org/TR/2001/REC-SVG-20010904/DTD/svg10.dtd'>
<svg height="97" style="color-interpolation:auto; color-rendering:auto; fill:black; fill-opacity:1; font-family:&apos;Dialog&apos;; font-size:12; font-style:normal; font-weight:normal; image-rendering:auto; shape-rendering:auto; stroke:black; stroke-dasharray:none; stroke-dashoffset:0; stroke-linecap:square; stroke-linejoin:miter; stroke-miterlimit:10; stroke-opacity:1; stroke-width:1; text-rendering:auto;" width="258" xmlns="http://www.w3.org/2000/svg" xmlns:xlink="http://www.w3.org/1999/xlink">
  <!--Generated by the Batik Graphics2D SVG Generator-->
  <defs id="genericDefs" />
  <g>
    <g style="fill:white; font-family:serif; stroke:white;">
      <rect height="125" style="stroke:none;" width="301" x="0" y="0" />
      <text style="fill:black; font-size:14; stroke:none;" x="30" xml:space="preserve" y="10">genealogical_resource_properties</text>
      <line style="fill:none; stroke:black;" x1="34" x2="50" y1="57" y2="57" />
      <line style="fill:none; stroke:black;" x1="50" x2="74" y1="57" y2="57" />
      <line style="fill:none; stroke:black;" x1="146" x2="122" y1="57" y2="57" />
      <line style="fill:none; stroke:black;" x1="74" x2="89" y1="57" y2="57" />
      <line style="fill:none; stroke:black;" x1="123" x2="107" y1="57" y2="57" />
      <path d="M66 65 A8 8 0 0 0 58 57" style="fill:none; stroke:black;" />
      <path d="M138 57 A8 8 0 0 0 130 65" style="fill:none; stroke:black;" />
      <rect height="24" style="fill:none; stroke:black;" width="18" x="89" y="45" />
      <text style="fill:black; stroke:none;" x="91" xml:space="preserve" y="65">id</text>
      <line style="fill:none; stroke:black;" x1="89" x2="89" y1="57" y2="57" />
      <polygon points=" 89 57 83 54 83 60" style="fill:black; stroke:none;" />
      <line style="fill:none; stroke:black;" x1="74" x2="82" y1="87" y2="87" />
      <line style="fill:none; stroke:black;" x1="123" x2="114" y1="87" y2="87" />
      <path d="M66 79 A8 8 0 0 0 74 87" style="fill:none; stroke:black;" />
      <line style="fill:none; stroke:black;" x1="66" x2="66" y1="65" y2="80" />
      <path d="M122 87 A8 8 0 0 0 130 79" style="fill:none; stroke:black;" />
      <line style="fill:none; stroke:black;" x1="130" x2="130" y1="65" y2="80" />
      <line style="fill:none; stroke:black;" x1="82" x2="114" y1="87" y2="87" />
      <rect height="24" style="fill:none; stroke:black;" width="91" x="146" y="45" />
      <text style="fill:black; stroke:none;" x="148" xml:space="preserve" y="65">attribution</text>
      <line style="fill:none; stroke:black;" x1="146" x2="146" y1="57" y2="57" />
      <polygon points=" 146 57 140 54 140 60" style="fill:black; stroke:none;" />
      <line style="fill:none; stroke:black;" x1="237" x2="245" y1="57" y2="57" />
      <line style="fill:none; stroke:black;" x1="248" x2="248" y1="57" y2="57" />
      <polygon points=" 248 57 242 54 242 60" style="fill:black; stroke:none;" />
    </g>
  </g>
</svg>
