<?xml version="1.0" encoding="ISO-8859-1"?>

<!DOCTYPE svg PUBLIC '-//W3C//DTD SVG 1.0//EN' 'http://www.w3.org/TR/2001/REC-SVG-20010904/DTD/svg10.dtd'>
<svg height="79" style="color-interpolation:auto; color-rendering:auto; fill:black; fill-opacity:1; font-family:&apos;Dialog&apos;; font-size:12; font-style:normal; font-weight:normal; image-rendering:auto; shape-rendering:auto; stroke:black; stroke-dasharray:none; stroke-dashoffset:0; stroke-linecap:square; stroke-linejoin:miter; stroke-miterlimit:10; stroke-opacity:1; stroke-width:1; text-rendering:auto;" width="199" xmlns="http://www.w3.org/2000/svg" xmlns:xlink="http://www.w3.org/1999/xlink">
  <!--Generated by the Batik Graphics2D SVG Generator-->
  <defs id="genericDefs" />
  <g>
    <g style="fill:white; font-family:serif; stroke:white;">
      <rect height="99" style="stroke:none;" width="242" x="0" y="0" />
      <text style="fill:black; font-size:14; stroke:none;" x="30" xml:space="preserve" y="10">identifier</text>
      <line style="fill:none; stroke:black;" x1="34" x2="50" y1="57" y2="57" />
      <rect height="24" style="fill:none; stroke:black;" width="38" x="50" y="45" />
      <text style="fill:black; stroke:none;" x="52" xml:space="preserve" y="65">type</text>
      <line style="fill:none; stroke:black;" x1="50" x2="50" y1="57" y2="57" />
      <polygon points=" 50 57 44 54 44 60" style="fill:black; stroke:none;" />
      <line style="fill:none; stroke:black;" x1="88" x2="104" y1="57" y2="57" />
      <polygon points=" 104 57 98 54 98 60" style="fill:black; stroke:none;" />
      <rect height="24" style="fill:none; stroke:black;" width="74" x="104" y="45" />
      <text style="fill:black; stroke:none;" x="106" xml:space="preserve" y="65">resource</text>
      <line style="fill:none; stroke:black;" x1="104" x2="104" y1="57" y2="57" />
      <polygon points=" 104 57 98 54 98 60" style="fill:black; stroke:none;" />
      <line style="fill:none; stroke:black;" x1="178" x2="186" y1="57" y2="57" />
      <line style="fill:none; stroke:black;" x1="189" x2="189" y1="57" y2="57" />
      <polygon points=" 189 57 183 54 183 60" style="fill:black; stroke:none;" />
    </g>
  </g>
</svg>
