<?xml version="1.0" encoding="ISO-8859-1"?>

<!DOCTYPE svg PUBLIC '-//W3C//DTD SVG 1.0//EN' 'http://www.w3.org/TR/2001/REC-SVG-20010904/DTD/svg10.dtd'>
<svg height="113" style="color-interpolation:auto; color-rendering:auto; fill:black; fill-opacity:1; font-family:&apos;Dialog&apos;; font-size:12; font-style:normal; font-weight:normal; image-rendering:auto; shape-rendering:auto; stroke:black; stroke-dasharray:none; stroke-dashoffset:0; stroke-linecap:square; stroke-linejoin:miter; stroke-miterlimit:10; stroke-opacity:1; stroke-width:1; text-rendering:auto;" width="176" xmlns="http://www.w3.org/2000/svg" xmlns:xlink="http://www.w3.org/1999/xlink">
  <!--Generated by the Batik Graphics2D SVG Generator-->
  <defs id="genericDefs" />
  <g>
    <g style="fill:white; font-family:serif; stroke:white;">
      <rect height="133" style="stroke:none;" width="219" x="0" y="0" />
      <text style="fill:black; font-size:14; stroke:none;" x="30" xml:space="preserve" y="10">living</text>
      <line style="fill:none; stroke:black;" x1="34" x2="50" y1="57" y2="57" />
      <line style="fill:none; stroke:black;" x1="50" x2="74" y1="57" y2="57" />
      <line style="fill:none; stroke:black;" x1="155" x2="131" y1="57" y2="57" />
      <line style="fill:none; stroke:black;" x1="74" x2="84" y1="57" y2="57" />
      <line style="fill:none; stroke:black;" x1="132" x2="120" y1="57" y2="57" />
      <path d="M66 65 A8 8 0 0 0 58 57" style="fill:none; stroke:black;" />
      <path d="M147 57 A8 8 0 0 0 139 65" style="fill:none; stroke:black;" />
      <rect height="24" style="fill:none; stroke:black;" width="36" x="84" y="45" />
      <text style="fill:black; stroke:none;" x="86.5" xml:space="preserve" y="65">true</text>
      <line style="fill:none; stroke:black;" x1="84" x2="84" y1="57" y2="57" />
      <polygon points=" 84 57 78 54 78 60" style="fill:black; stroke:none;" />
      <line style="fill:none; stroke:black;" x1="74" x2="82" y1="91" y2="91" />
      <line style="fill:none; stroke:black;" x1="132" x2="123" y1="91" y2="91" />
      <path d="M66 83 A8 8 0 0 0 74 91" style="fill:none; stroke:black;" />
      <line style="fill:none; stroke:black;" x1="66" x2="66" y1="65" y2="84" />
      <path d="M131 91 A8 8 0 0 0 139 83" style="fill:none; stroke:black;" />
      <line style="fill:none; stroke:black;" x1="139" x2="139" y1="65" y2="84" />
      <rect height="24" style="fill:none; stroke:black;" width="41" x="82" y="79" />
      <text style="fill:black; stroke:none;" x="84" xml:space="preserve" y="99">false</text>
      <line style="fill:none; stroke:black;" x1="82" x2="82" y1="91" y2="91" />
      <polygon points=" 82 91 76 88 76 94" style="fill:black; stroke:none;" />
      <line style="fill:none; stroke:black;" x1="155" x2="163" y1="57" y2="57" />
      <line style="fill:none; stroke:black;" x1="166" x2="166" y1="57" y2="57" />
      <polygon points=" 166 57 160 54 160 60" style="fill:black; stroke:none;" />
    </g>
  </g>
</svg>
