<?xml version="1.0" encoding="ISO-8859-1"?>

<!DOCTYPE svg PUBLIC '-//W3C//DTD SVG 1.0//EN' 'http://www.w3.org/TR/2001/REC-SVG-20010904/DTD/svg10.dtd'>
<svg height="97" style="color-interpolation:auto; color-rendering:auto; fill:black; fill-opacity:1; font-family:&apos;Dialog&apos;; font-size:12; font-style:normal; font-weight:normal; image-rendering:auto; shape-rendering:auto; stroke:black; stroke-dasharray:none; stroke-dashoffset:0; stroke-linecap:square; stroke-linejoin:miter; stroke-miterlimit:10; stroke-opacity:1; stroke-width:1; text-rendering:auto;" width="766" xmlns="http://www.w3.org/2000/svg" xmlns:xlink="http://www.w3.org/1999/xlink">
  <!--Generated by the Batik Graphics2D SVG Generator-->
  <defs id="genericDefs" />
  <g>
    <g style="fill:white; font-family:serif; stroke:white;">
      <rect height="125" style="stroke:none;" width="809" x="0" y="0" />
      <text style="fill:black; font-size:14; stroke:none;" x="30" xml:space="preserve" y="10">name</text>
      <line style="fill:none; stroke:black;" x1="34" x2="50" y1="57" y2="57" />
      <rect height="24" style="fill:none; stroke:black;" width="183" x="50" y="45" />
      <text style="fill:black; stroke:none;" x="52" xml:space="preserve" y="65">conclusion_properties</text>
      <line style="fill:none; stroke:black;" x1="50" x2="50" y1="57" y2="57" />
      <polygon points=" 50 57 44 54 44 60" style="fill:black; stroke:none;" />
      <line style="fill:none; stroke:black;" x1="233" x2="249" y1="57" y2="57" />
      <polygon points=" 249 57 243 54 243 60" style="fill:black; stroke:none;" />
      <rect height="24" style="fill:none; stroke:black;" width="38" x="249" y="45" />
      <text style="fill:black; stroke:none;" x="251" xml:space="preserve" y="65">type</text>
      <line style="fill:none; stroke:black;" x1="249" x2="249" y1="57" y2="57" />
      <polygon points=" 249 57 243 54 243 60" style="fill:black; stroke:none;" />
      <line style="fill:none; stroke:black;" x1="287" x2="303" y1="57" y2="57" />
      <polygon points=" 303 57 297 54 297 60" style="fill:black; stroke:none;" />
      <rect height="24" style="fill:none; stroke:black;" width="112" x="303" y="45" />
      <text style="fill:black; stroke:none;" x="305" xml:space="preserve" y="65">primaryForm</text>
      <line style="fill:none; stroke:black;" x1="303" x2="303" y1="57" y2="57" />
      <polygon points=" 303 57 297 54 297 60" style="fill:black; stroke:none;" />
      <path d="M431 66 A8 8 0 0 0 439 74" style="fill:none; stroke:black;" />
      <path d="M439 57 A8 8 0 0 0 431 65" style="fill:none; stroke:black;" />
      <path d="M576 74 A8 8 0 0 0 584 66" style="fill:none; stroke:black;" />
      <path d="M584 65 A8 8 0 0 0 576 57" style="fill:none; stroke:black;" />
      <line style="fill:none; stroke:black;" x1="431" x2="431" y1="65" y2="67" />
      <line style="fill:none; stroke:black;" x1="584" x2="584" y1="65" y2="67" />
      <line style="fill:none; stroke:black;" x1="438" x2="447" y1="74" y2="74" />
      <line style="fill:none; stroke:black;" x1="568" x2="577" y1="74" y2="74" />
      <line style="fill:none; stroke:black;" x1="415" x2="600" y1="57" y2="57" />
      <rect height="24" style="fill:none; stroke:black;" width="121" x="447" y="62" />
      <text style="fill:black; stroke:none;" x="449" xml:space="preserve" y="82">alternateForm</text>
      <line style="fill:none; stroke:black;" x1="568" x2="568" y1="74" y2="74" />
      <polygon points=" 568 74 574 77 574 71" style="fill:black; stroke:none;" />
      <line style="fill:none; stroke:black;" x1="600" x2="624" y1="57" y2="57" />
      <line style="fill:none; stroke:black;" x1="745" x2="721" y1="57" y2="57" />
      <line style="fill:none; stroke:black;" x1="624" x2="632" y1="57" y2="57" />
      <line style="fill:none; stroke:black;" x1="722" x2="713" y1="57" y2="57" />
      <path d="M616 65 A8 8 0 0 0 608 57" style="fill:none; stroke:black;" />
      <path d="M737 57 A8 8 0 0 0 729 65" style="fill:none; stroke:black;" />
      <rect height="24" style="fill:none; stroke:black;" width="81" x="632" y="45" />
      <text style="fill:black; stroke:none;" x="634" xml:space="preserve" y="65">preferred</text>
      <line style="fill:none; stroke:black;" x1="632" x2="632" y1="57" y2="57" />
      <polygon points=" 632 57 626 54 626 60" style="fill:black; stroke:none;" />
      <line style="fill:none; stroke:black;" x1="624" x2="656" y1="87" y2="87" />
      <line style="fill:none; stroke:black;" x1="722" x2="688" y1="87" y2="87" />
      <path d="M616 79 A8 8 0 0 0 624 87" style="fill:none; stroke:black;" />
      <line style="fill:none; stroke:black;" x1="616" x2="616" y1="65" y2="80" />
      <path d="M721 87 A8 8 0 0 0 729 79" style="fill:none; stroke:black;" />
      <line style="fill:none; stroke:black;" x1="729" x2="729" y1="65" y2="80" />
      <line style="fill:none; stroke:black;" x1="656" x2="688" y1="87" y2="87" />
      <line style="fill:none; stroke:black;" x1="745" x2="753" y1="57" y2="57" />
      <line style="fill:none; stroke:black;" x1="756" x2="756" y1="57" y2="57" />
      <polygon points=" 756 57 750 54 750 60" style="fill:black; stroke:none;" />
    </g>
  </g>
</svg>
