<?xml version="1.0" encoding="ISO-8859-1"?>

<!DOCTYPE svg PUBLIC '-//W3C//DTD SVG 1.0//EN' 'http://www.w3.org/TR/2001/REC-SVG-20010904/DTD/svg10.dtd'>
<svg height="97" style="color-interpolation:auto; color-rendering:auto; fill:black; fill-opacity:1; font-family:&apos;Dialog&apos;; font-size:12; font-style:normal; font-weight:normal; image-rendering:auto; shape-rendering:auto; stroke:black; stroke-dasharray:none; stroke-dashoffset:0; stroke-linecap:square; stroke-linejoin:miter; stroke-miterlimit:10; stroke-opacity:1; stroke-width:1; text-rendering:auto;" width="348" xmlns="http://www.w3.org/2000/svg" xmlns:xlink="http://www.w3.org/1999/xlink">
  <!--Generated by the Batik Graphics2D SVG Generator-->
  <defs id="genericDefs" />
  <g>
    <g style="fill:white; font-family:serif; stroke:white;">
      <rect height="125" style="stroke:none;" width="391" x="0" y="0" />
      <text style="fill:black; font-size:14; stroke:none;" x="30" xml:space="preserve" y="10">nameForm</text>
      <line style="fill:none; stroke:black;" x1="34" x2="50" y1="57" y2="57" />
      <line style="fill:none; stroke:black;" x1="50" x2="74" y1="57" y2="57" />
      <line style="fill:none; stroke:black;" x1="180" x2="156" y1="57" y2="57" />
      <line style="fill:none; stroke:black;" x1="74" x2="82" y1="57" y2="57" />
      <line style="fill:none; stroke:black;" x1="157" x2="148" y1="57" y2="57" />
      <path d="M66 65 A8 8 0 0 0 58 57" style="fill:none; stroke:black;" />
      <path d="M172 57 A8 8 0 0 0 164 65" style="fill:none; stroke:black;" />
      <rect height="24" style="fill:none; stroke:black;" width="66" x="82" y="45" />
      <text style="fill:black; stroke:none;" x="84" xml:space="preserve" y="65">fullText</text>
      <line style="fill:none; stroke:black;" x1="82" x2="82" y1="57" y2="57" />
      <polygon points=" 82 57 76 54 76 60" style="fill:black; stroke:none;" />
      <line style="fill:none; stroke:black;" x1="74" x2="99" y1="87" y2="87" />
      <line style="fill:none; stroke:black;" x1="157" x2="131" y1="87" y2="87" />
      <path d="M66 79 A8 8 0 0 0 74 87" style="fill:none; stroke:black;" />
      <line style="fill:none; stroke:black;" x1="66" x2="66" y1="65" y2="80" />
      <path d="M156 87 A8 8 0 0 0 164 79" style="fill:none; stroke:black;" />
      <line style="fill:none; stroke:black;" x1="164" x2="164" y1="65" y2="80" />
      <line style="fill:none; stroke:black;" x1="99" x2="131" y1="87" y2="87" />
      <path d="M196 66 A8 8 0 0 0 204 74" style="fill:none; stroke:black;" />
      <path d="M204 57 A8 8 0 0 0 196 65" style="fill:none; stroke:black;" />
      <path d="M303 74 A8 8 0 0 0 311 66" style="fill:none; stroke:black;" />
      <path d="M311 65 A8 8 0 0 0 303 57" style="fill:none; stroke:black;" />
      <line style="fill:none; stroke:black;" x1="196" x2="196" y1="65" y2="67" />
      <line style="fill:none; stroke:black;" x1="311" x2="311" y1="65" y2="67" />
      <line style="fill:none; stroke:black;" x1="203" x2="212" y1="74" y2="74" />
      <line style="fill:none; stroke:black;" x1="295" x2="304" y1="74" y2="74" />
      <line style="fill:none; stroke:black;" x1="180" x2="327" y1="57" y2="57" />
      <rect height="24" style="fill:none; stroke:black;" width="83" x="212" y="62" />
      <text style="fill:black; stroke:none;" x="214" xml:space="preserve" y="82">namePart</text>
      <line style="fill:none; stroke:black;" x1="295" x2="295" y1="74" y2="74" />
      <polygon points=" 295 74 301 77 301 71" style="fill:black; stroke:none;" />
      <line style="fill:none; stroke:black;" x1="327" x2="335" y1="57" y2="57" />
      <line style="fill:none; stroke:black;" x1="338" x2="338" y1="57" y2="57" />
      <polygon points=" 338 57 332 54 332 60" style="fill:black; stroke:none;" />
    </g>
  </g>
</svg>
