<?xml version="1.0" encoding="ISO-8859-1"?>

<!DOCTYPE svg PUBLIC '-//W3C//DTD SVG 1.0//EN' 'http://www.w3.org/TR/2001/REC-SVG-20010904/DTD/svg10.dtd'>
<svg height="97" style="color-interpolation:auto; color-rendering:auto; fill:black; fill-opacity:1; font-family:&apos;Dialog&apos;; font-size:12; font-style:normal; font-weight:normal; image-rendering:auto; shape-rendering:auto; stroke:black; stroke-dasharray:none; stroke-dashoffset:0; stroke-linecap:square; stroke-linejoin:miter; stroke-miterlimit:10; stroke-opacity:1; stroke-width:1; text-rendering:auto;" width="883" xmlns="http://www.w3.org/2000/svg" xmlns:xlink="http://www.w3.org/1999/xlink">
  <!--Generated by the Batik Graphics2D SVG Generator-->
  <defs id="genericDefs" />
  <g>
    <g style="fill:white; font-family:serif; stroke:white;">
      <rect height="125" style="stroke:none;" width="926" x="0" y="0" />
      <text style="fill:black; font-size:14; stroke:none;" x="30" xml:space="preserve" y="10">Person</text>
      <line style="fill:none; stroke:black;" x1="34" x2="50" y1="57" y2="57" />
      <path d="M66 66 A8 8 0 0 0 74 74" style="fill:none; stroke:black;" />
      <path d="M74 57 A8 8 0 0 0 66 65" style="fill:none; stroke:black;" />
      <path d="M169 74 A8 8 0 0 0 177 66" style="fill:none; stroke:black;" />
      <path d="M177 65 A8 8 0 0 0 169 57" style="fill:none; stroke:black;" />
      <line style="fill:none; stroke:black;" x1="66" x2="66" y1="65" y2="67" />
      <line style="fill:none; stroke:black;" x1="177" x2="177" y1="65" y2="67" />
      <line style="fill:none; stroke:black;" x1="73" x2="82" y1="74" y2="74" />
      <line style="fill:none; stroke:black;" x1="161" x2="170" y1="74" y2="74" />
      <line style="fill:none; stroke:black;" x1="50" x2="193" y1="57" y2="57" />
      <rect height="24" style="fill:none; stroke:black;" width="79" x="82" y="62" />
      <text style="fill:black; stroke:none;" x="84" xml:space="preserve" y="82">identifier</text>
      <line style="fill:none; stroke:black;" x1="161" x2="161" y1="74" y2="74" />
      <polygon points=" 161 74 167 77 167 71" style="fill:black; stroke:none;" />
      <line style="fill:none; stroke:black;" x1="193" x2="217" y1="57" y2="57" />
      <line style="fill:none; stroke:black;" x1="305" x2="281" y1="57" y2="57" />
      <line style="fill:none; stroke:black;" x1="217" x2="225" y1="57" y2="57" />
      <line style="fill:none; stroke:black;" x1="282" x2="273" y1="57" y2="57" />
      <path d="M209 65 A8 8 0 0 0 201 57" style="fill:none; stroke:black;" />
      <path d="M297 57 A8 8 0 0 0 289 65" style="fill:none; stroke:black;" />
      <rect height="24" style="fill:none; stroke:black;" width="48" x="225" y="45" />
      <text style="fill:black; stroke:none;" x="227" xml:space="preserve" y="65">living</text>
      <line style="fill:none; stroke:black;" x1="225" x2="225" y1="57" y2="57" />
      <polygon points=" 225 57 219 54 219 60" style="fill:black; stroke:none;" />
      <line style="fill:none; stroke:black;" x1="217" x2="233" y1="87" y2="87" />
      <line style="fill:none; stroke:black;" x1="282" x2="265" y1="87" y2="87" />
      <path d="M209 79 A8 8 0 0 0 217 87" style="fill:none; stroke:black;" />
      <line style="fill:none; stroke:black;" x1="209" x2="209" y1="65" y2="80" />
      <path d="M281 87 A8 8 0 0 0 289 79" style="fill:none; stroke:black;" />
      <line style="fill:none; stroke:black;" x1="289" x2="289" y1="65" y2="80" />
      <line style="fill:none; stroke:black;" x1="233" x2="265" y1="87" y2="87" />
      <line style="fill:none; stroke:black;" x1="305" x2="329" y1="57" y2="57" />
      <line style="fill:none; stroke:black;" x1="430" x2="406" y1="57" y2="57" />
      <line style="fill:none; stroke:black;" x1="329" x2="337" y1="57" y2="57" />
      <line style="fill:none; stroke:black;" x1="407" x2="398" y1="57" y2="57" />
      <path d="M321 65 A8 8 0 0 0 313 57" style="fill:none; stroke:black;" />
      <path d="M422 57 A8 8 0 0 0 414 65" style="fill:none; stroke:black;" />
      <rect height="24" style="fill:none; stroke:black;" width="61" x="337" y="45" />
      <text style="fill:black; stroke:none;" x="339" xml:space="preserve" y="65">gender</text>
      <line style="fill:none; stroke:black;" x1="337" x2="337" y1="57" y2="57" />
      <polygon points=" 337 57 331 54 331 60" style="fill:black; stroke:none;" />
      <line style="fill:none; stroke:black;" x1="329" x2="351" y1="87" y2="87" />
      <line style="fill:none; stroke:black;" x1="407" x2="383" y1="87" y2="87" />
      <path d="M321 79 A8 8 0 0 0 329 87" style="fill:none; stroke:black;" />
      <line style="fill:none; stroke:black;" x1="321" x2="321" y1="65" y2="80" />
      <path d="M406 87 A8 8 0 0 0 414 79" style="fill:none; stroke:black;" />
      <line style="fill:none; stroke:black;" x1="414" x2="414" y1="65" y2="80" />
      <line style="fill:none; stroke:black;" x1="351" x2="383" y1="87" y2="87" />
      <path d="M446 66 A8 8 0 0 0 454 74" style="fill:none; stroke:black;" />
      <path d="M454 57 A8 8 0 0 0 446 65" style="fill:none; stroke:black;" />
      <path d="M517 74 A8 8 0 0 0 525 66" style="fill:none; stroke:black;" />
      <path d="M525 65 A8 8 0 0 0 517 57" style="fill:none; stroke:black;" />
      <line style="fill:none; stroke:black;" x1="446" x2="446" y1="65" y2="67" />
      <line style="fill:none; stroke:black;" x1="525" x2="525" y1="65" y2="67" />
      <line style="fill:none; stroke:black;" x1="453" x2="462" y1="74" y2="74" />
      <line style="fill:none; stroke:black;" x1="509" x2="518" y1="74" y2="74" />
      <line style="fill:none; stroke:black;" x1="430" x2="541" y1="57" y2="57" />
      <rect height="24" style="fill:none; stroke:black;" width="47" x="462" y="62" />
      <text style="fill:black; stroke:none;" x="464" xml:space="preserve" y="82">name</text>
      <line style="fill:none; stroke:black;" x1="509" x2="509" y1="74" y2="74" />
      <polygon points=" 509 74 515 77 515 71" style="fill:black; stroke:none;" />
      <path d="M557 66 A8 8 0 0 0 565 74" style="fill:none; stroke:black;" />
      <path d="M565 57 A8 8 0 0 0 557 65" style="fill:none; stroke:black;" />
      <path d="M615 74 A8 8 0 0 0 623 66" style="fill:none; stroke:black;" />
      <path d="M623 65 A8 8 0 0 0 615 57" style="fill:none; stroke:black;" />
      <line style="fill:none; stroke:black;" x1="557" x2="557" y1="65" y2="67" />
      <line style="fill:none; stroke:black;" x1="623" x2="623" y1="65" y2="67" />
      <line style="fill:none; stroke:black;" x1="564" x2="573" y1="74" y2="74" />
      <line style="fill:none; stroke:black;" x1="607" x2="616" y1="74" y2="74" />
      <line style="fill:none; stroke:black;" x1="541" x2="639" y1="57" y2="57" />
      <rect height="24" style="fill:none; stroke:black;" width="34" x="573" y="62" />
      <text style="fill:black; stroke:none;" x="575" xml:space="preserve" y="82">fact</text>
      <line style="fill:none; stroke:black;" x1="607" x2="607" y1="74" y2="74" />
      <polygon points=" 607 74 613 77 613 71" style="fill:black; stroke:none;" />
      <path d="M655 66 A8 8 0 0 0 663 74" style="fill:none; stroke:black;" />
      <path d="M663 57 A8 8 0 0 0 655 65" style="fill:none; stroke:black;" />
      <path d="M736 74 A8 8 0 0 0 744 66" style="fill:none; stroke:black;" />
      <path d="M744 65 A8 8 0 0 0 736 57" style="fill:none; stroke:black;" />
      <line style="fill:none; stroke:black;" x1="655" x2="655" y1="65" y2="67" />
      <line style="fill:none; stroke:black;" x1="744" x2="744" y1="65" y2="67" />
      <line style="fill:none; stroke:black;" x1="662" x2="671" y1="74" y2="74" />
      <line style="fill:none; stroke:black;" x1="728" x2="737" y1="74" y2="74" />
      <line style="fill:none; stroke:black;" x1="639" x2="760" y1="57" y2="57" />
      <rect height="24" style="fill:none; stroke:black;" width="57" x="671" y="62" />
      <text style="fill:black; stroke:none;" x="673" xml:space="preserve" y="82">source</text>
      <line style="fill:none; stroke:black;" x1="728" x2="728" y1="74" y2="74" />
      <polygon points=" 728 74 734 77 734 71" style="fill:black; stroke:none;" />
      <path d="M776 66 A8 8 0 0 0 784 74" style="fill:none; stroke:black;" />
      <path d="M784 57 A8 8 0 0 0 776 65" style="fill:none; stroke:black;" />
      <path d="M838 74 A8 8 0 0 0 846 66" style="fill:none; stroke:black;" />
      <path d="M846 65 A8 8 0 0 0 838 57" style="fill:none; stroke:black;" />
      <line style="fill:none; stroke:black;" x1="776" x2="776" y1="65" y2="67" />
      <line style="fill:none; stroke:black;" x1="846" x2="846" y1="65" y2="67" />
      <line style="fill:none; stroke:black;" x1="783" x2="792" y1="74" y2="74" />
      <line style="fill:none; stroke:black;" x1="830" x2="839" y1="74" y2="74" />
      <line style="fill:none; stroke:black;" x1="760" x2="862" y1="57" y2="57" />
      <rect height="24" style="fill:none; stroke:black;" width="38" x="792" y="62" />
      <text style="fill:black; stroke:none;" x="794" xml:space="preserve" y="82">note</text>
      <line style="fill:none; stroke:black;" x1="830" x2="830" y1="74" y2="74" />
      <polygon points=" 830 74 836 77 836 71" style="fill:black; stroke:none;" />
      <line style="fill:none; stroke:black;" x1="862" x2="870" y1="57" y2="57" />
      <line style="fill:none; stroke:black;" x1="873" x2="873" y1="57" y2="57" />
      <polygon points=" 873 57 867 54 867 60" style="fill:black; stroke:none;" />
    </g>
  </g>
</svg>
