<?xml version="1.0" encoding="ISO-8859-1"?>

<!DOCTYPE svg PUBLIC '-//W3C//DTD SVG 1.0//EN' 'http://www.w3.org/TR/2001/REC-SVG-20010904/DTD/svg10.dtd'>
<svg height="79" style="color-interpolation:auto; color-rendering:auto; fill:black; fill-opacity:1; font-family:&apos;Dialog&apos;; font-size:12; font-style:normal; font-weight:normal; image-rendering:auto; shape-rendering:auto; stroke:black; stroke-dasharray:none; stroke-dashoffset:0; stroke-linecap:square; stroke-linejoin:miter; stroke-miterlimit:10; stroke-opacity:1; stroke-width:1; text-rendering:auto;" width="209" xmlns="http://www.w3.org/2000/svg" xmlns:xlink="http://www.w3.org/1999/xlink">
  <!--Generated by the Batik Graphics2D SVG Generator-->
  <defs id="genericDefs" />
  <g>
    <g style="fill:white; font-family:serif; stroke:white;">
      <rect height="99" style="stroke:none;" width="252" x="0" y="0" />
      <text style="fill:black; font-size:14; stroke:none;" x="30" xml:space="preserve" y="10">place</text>
      <line style="fill:none; stroke:black;" x1="34" x2="50" y1="57" y2="57" />
      <rect height="24" style="fill:none; stroke:black;" width="66" x="50" y="45" />
      <text style="fill:black; stroke:none;" x="52" xml:space="preserve" y="65">original</text>
      <line style="fill:none; stroke:black;" x1="50" x2="50" y1="57" y2="57" />
      <polygon points=" 50 57 44 54 44 60" style="fill:black; stroke:none;" />
      <line style="fill:none; stroke:black;" x1="116" x2="132" y1="57" y2="57" />
      <polygon points=" 132 57 126 54 126 60" style="fill:black; stroke:none;" />
      <rect height="24" style="fill:none; stroke:black;" width="56" x="132" y="45" />
      <text style="fill:black; stroke:none;" x="134" xml:space="preserve" y="65">formal</text>
      <line style="fill:none; stroke:black;" x1="132" x2="132" y1="57" y2="57" />
      <polygon points=" 132 57 126 54 126 60" style="fill:black; stroke:none;" />
      <line style="fill:none; stroke:black;" x1="188" x2="196" y1="57" y2="57" />
      <line style="fill:none; stroke:black;" x1="199" x2="199" y1="57" y2="57" />
      <polygon points=" 199 57 193 54 193 60" style="fill:black; stroke:none;" />
    </g>
  </g>
</svg>
