<?xml version="1.0" encoding="ISO-8859-1"?>

<!DOCTYPE svg PUBLIC '-//W3C//DTD SVG 1.0//EN' 'http://www.w3.org/TR/2001/REC-SVG-20010904/DTD/svg10.dtd'>
<svg height="96" style="color-interpolation:auto; color-rendering:auto; fill:black; fill-opacity:1; font-family:&apos;Dialog&apos;; font-size:12; font-style:normal; font-weight:normal; image-rendering:auto; shape-rendering:auto; stroke:black; stroke-dasharray:none; stroke-dashoffset:0; stroke-linecap:square; stroke-linejoin:miter; stroke-miterlimit:10; stroke-opacity:1; stroke-width:1; text-rendering:auto;" width="597" xmlns="http://www.w3.org/2000/svg" xmlns:xlink="http://www.w3.org/1999/xlink">
  <!--Generated by the Batik Graphics2D SVG Generator-->
  <defs id="genericDefs" />
  <g>
    <g style="fill:white; font-family:serif; stroke:white;">
      <rect height="112" style="stroke:none;" width="640" x="0" y="0" />
      <text style="fill:black; font-size:14; stroke:none;" x="30" xml:space="preserve" y="10">Relationship</text>
      <line style="fill:none; stroke:black;" x1="34" x2="50" y1="57" y2="57" />
      <rect height="24" style="fill:none; stroke:black;" width="38" x="50" y="45" />
      <text style="fill:black; stroke:none;" x="52" xml:space="preserve" y="65">type</text>
      <line style="fill:none; stroke:black;" x1="50" x2="50" y1="57" y2="57" />
      <polygon points=" 50 57 44 54 44 60" style="fill:black; stroke:none;" />
      <line style="fill:none; stroke:black;" x1="88" x2="104" y1="57" y2="57" />
      <polygon points=" 104 57 98 54 98 60" style="fill:black; stroke:none;" />
      <rect height="24" style="fill:none; stroke:black;" width="67" x="104" y="45" />
      <text style="fill:black; stroke:none;" x="106" xml:space="preserve" y="65">person1</text>
      <line style="fill:none; stroke:black;" x1="104" x2="104" y1="57" y2="57" />
      <polygon points=" 104 57 98 54 98 60" style="fill:black; stroke:none;" />
      <line style="fill:none; stroke:black;" x1="171" x2="187" y1="57" y2="57" />
      <polygon points=" 187 57 181 54 181 60" style="fill:black; stroke:none;" />
      <rect height="24" style="fill:none; stroke:black;" width="68" x="187" y="45" />
      <text style="fill:black; stroke:none;" x="189" xml:space="preserve" y="65">person2</text>
      <line style="fill:none; stroke:black;" x1="187" x2="187" y1="57" y2="57" />
      <polygon points=" 187 57 181 54 181 60" style="fill:black; stroke:none;" />
      <path d="M271 66 A8 8 0 0 0 279 74" style="fill:none; stroke:black;" />
      <path d="M279 57 A8 8 0 0 0 271 65" style="fill:none; stroke:black;" />
      <path d="M329 74 A8 8 0 0 0 337 66" style="fill:none; stroke:black;" />
      <path d="M337 65 A8 8 0 0 0 329 57" style="fill:none; stroke:black;" />
      <line style="fill:none; stroke:black;" x1="271" x2="271" y1="65" y2="67" />
      <line style="fill:none; stroke:black;" x1="337" x2="337" y1="65" y2="67" />
      <line style="fill:none; stroke:black;" x1="278" x2="287" y1="74" y2="74" />
      <line style="fill:none; stroke:black;" x1="321" x2="330" y1="74" y2="74" />
      <line style="fill:none; stroke:black;" x1="255" x2="353" y1="57" y2="57" />
      <rect height="24" style="fill:none; stroke:black;" width="34" x="287" y="62" />
      <text style="fill:black; stroke:none;" x="289" xml:space="preserve" y="82">fact</text>
      <line style="fill:none; stroke:black;" x1="321" x2="321" y1="74" y2="74" />
      <polygon points=" 321 74 327 77 327 71" style="fill:black; stroke:none;" />
      <path d="M369 66 A8 8 0 0 0 377 74" style="fill:none; stroke:black;" />
      <path d="M377 57 A8 8 0 0 0 369 65" style="fill:none; stroke:black;" />
      <path d="M450 74 A8 8 0 0 0 458 66" style="fill:none; stroke:black;" />
      <path d="M458 65 A8 8 0 0 0 450 57" style="fill:none; stroke:black;" />
      <line style="fill:none; stroke:black;" x1="369" x2="369" y1="65" y2="67" />
      <line style="fill:none; stroke:black;" x1="458" x2="458" y1="65" y2="67" />
      <line style="fill:none; stroke:black;" x1="376" x2="385" y1="74" y2="74" />
      <line style="fill:none; stroke:black;" x1="442" x2="451" y1="74" y2="74" />
      <line style="fill:none; stroke:black;" x1="353" x2="474" y1="57" y2="57" />
      <rect height="24" style="fill:none; stroke:black;" width="57" x="385" y="62" />
      <text style="fill:black; stroke:none;" x="387" xml:space="preserve" y="82">source</text>
      <line style="fill:none; stroke:black;" x1="442" x2="442" y1="74" y2="74" />
      <polygon points=" 442 74 448 77 448 71" style="fill:black; stroke:none;" />
      <path d="M490 66 A8 8 0 0 0 498 74" style="fill:none; stroke:black;" />
      <path d="M498 57 A8 8 0 0 0 490 65" style="fill:none; stroke:black;" />
      <path d="M552 74 A8 8 0 0 0 560 66" style="fill:none; stroke:black;" />
      <path d="M560 65 A8 8 0 0 0 552 57" style="fill:none; stroke:black;" />
      <line style="fill:none; stroke:black;" x1="490" x2="490" y1="65" y2="67" />
      <line style="fill:none; stroke:black;" x1="560" x2="560" y1="65" y2="67" />
      <line style="fill:none; stroke:black;" x1="497" x2="506" y1="74" y2="74" />
      <line style="fill:none; stroke:black;" x1="544" x2="553" y1="74" y2="74" />
      <line style="fill:none; stroke:black;" x1="474" x2="576" y1="57" y2="57" />
      <rect height="24" style="fill:none; stroke:black;" width="38" x="506" y="62" />
      <text style="fill:black; stroke:none;" x="508" xml:space="preserve" y="82">note</text>
      <line style="fill:none; stroke:black;" x1="544" x2="544" y1="74" y2="74" />
      <polygon points=" 544 74 550 77 550 71" style="fill:black; stroke:none;" />
      <line style="fill:none; stroke:black;" x1="576" x2="584" y1="57" y2="57" />
      <line style="fill:none; stroke:black;" x1="587" x2="587" y1="57" y2="57" />
      <polygon points=" 587 57 581 54 581 60" style="fill:black; stroke:none;" />
    </g>
  </g>
</svg>
