<?xml version="1.0" encoding="ISO-8859-1"?>

<!DOCTYPE svg PUBLIC '-//W3C//DTD SVG 1.0//EN' 'http://www.w3.org/TR/2001/REC-SVG-20010904/DTD/svg10.dtd'>
<svg height="97" style="color-interpolation:auto; color-rendering:auto; fill:black; fill-opacity:1; font-family:&apos;Dialog&apos;; font-size:12; font-style:normal; font-weight:normal; image-rendering:auto; shape-rendering:auto; stroke:black; stroke-dasharray:none; stroke-dashoffset:0; stroke-linecap:square; stroke-linejoin:miter; stroke-miterlimit:10; stroke-opacity:1; stroke-width:1; text-rendering:auto;" width="733" xmlns="http://www.w3.org/2000/svg" xmlns:xlink="http://www.w3.org/1999/xlink">
  <!--Generated by the Batik Graphics2D SVG Generator-->
  <defs id="genericDefs" />
  <g>
    <g style="fill:white; font-family:serif; stroke:white;">
      <rect height="125" style="stroke:none;" width="776" x="0" y="0" />
      <text style="fill:black; font-size:14; stroke:none;" x="30" xml:space="preserve" y="10">account</text>
      <line style="fill:none; stroke:black;" x1="34" x2="50" y1="57" y2="57" />
      <line style="fill:none; stroke:black;" x1="50" x2="74" y1="57" y2="57" />
      <line style="fill:none; stroke:black;" x1="146" x2="122" y1="57" y2="57" />
      <line style="fill:none; stroke:black;" x1="74" x2="89" y1="57" y2="57" />
      <line style="fill:none; stroke:black;" x1="123" x2="107" y1="57" y2="57" />
      <path d="M66 65 A8 8 0 0 0 58 57" style="fill:none; stroke:black;" />
      <path d="M138 57 A8 8 0 0 0 130 65" style="fill:none; stroke:black;" />
      <rect height="24" style="fill:none; stroke:black;" width="18" x="89" y="45" />
      <text style="fill:black; stroke:none;" x="91" xml:space="preserve" y="65">id</text>
      <line style="fill:none; stroke:black;" x1="89" x2="89" y1="57" y2="57" />
      <polygon points=" 89 57 83 54 83 60" style="fill:black; stroke:none;" />
      <line style="fill:none; stroke:black;" x1="74" x2="82" y1="87" y2="87" />
      <line style="fill:none; stroke:black;" x1="123" x2="114" y1="87" y2="87" />
      <path d="M66 79 A8 8 0 0 0 74 87" style="fill:none; stroke:black;" />
      <line style="fill:none; stroke:black;" x1="66" x2="66" y1="65" y2="80" />
      <path d="M122 87 A8 8 0 0 0 130 79" style="fill:none; stroke:black;" />
      <line style="fill:none; stroke:black;" x1="130" x2="130" y1="65" y2="80" />
      <line style="fill:none; stroke:black;" x1="82" x2="114" y1="87" y2="87" />
      <line style="fill:none; stroke:black;" x1="146" x2="170" y1="57" y2="57" />
      <line style="fill:none; stroke:black;" x1="359" x2="335" y1="57" y2="57" />
      <line style="fill:none; stroke:black;" x1="170" x2="178" y1="57" y2="57" />
      <line style="fill:none; stroke:black;" x1="336" x2="327" y1="57" y2="57" />
      <path d="M162 65 A8 8 0 0 0 154 57" style="fill:none; stroke:black;" />
      <path d="M351 57 A8 8 0 0 0 343 65" style="fill:none; stroke:black;" />
      <rect height="24" style="fill:none; stroke:black;" width="149" x="178" y="45" />
      <text style="fill:black; stroke:none;" x="180" xml:space="preserve" y="65">serviceHomepage</text>
      <line style="fill:none; stroke:black;" x1="178" x2="178" y1="57" y2="57" />
      <polygon points=" 178 57 172 54 172 60" style="fill:black; stroke:none;" />
      <line style="fill:none; stroke:black;" x1="170" x2="236" y1="87" y2="87" />
      <line style="fill:none; stroke:black;" x1="336" x2="268" y1="87" y2="87" />
      <path d="M162 79 A8 8 0 0 0 170 87" style="fill:none; stroke:black;" />
      <line style="fill:none; stroke:black;" x1="162" x2="162" y1="65" y2="80" />
      <path d="M335 87 A8 8 0 0 0 343 79" style="fill:none; stroke:black;" />
      <line style="fill:none; stroke:black;" x1="343" x2="343" y1="65" y2="80" />
      <line style="fill:none; stroke:black;" x1="236" x2="268" y1="87" y2="87" />
      <line style="fill:none; stroke:black;" x1="359" x2="383" y1="57" y2="57" />
      <line style="fill:none; stroke:black;" x1="539" x2="515" y1="57" y2="57" />
      <line style="fill:none; stroke:black;" x1="383" x2="391" y1="57" y2="57" />
      <line style="fill:none; stroke:black;" x1="516" x2="507" y1="57" y2="57" />
      <path d="M375 65 A8 8 0 0 0 367 57" style="fill:none; stroke:black;" />
      <path d="M531 57 A8 8 0 0 0 523 65" style="fill:none; stroke:black;" />
      <rect height="24" style="fill:none; stroke:black;" width="116" x="391" y="45" />
      <text style="fill:black; stroke:none;" x="393" xml:space="preserve" y="65">accountName</text>
      <line style="fill:none; stroke:black;" x1="391" x2="391" y1="57" y2="57" />
      <polygon points=" 391 57 385 54 385 60" style="fill:black; stroke:none;" />
      <line style="fill:none; stroke:black;" x1="383" x2="433" y1="87" y2="87" />
      <line style="fill:none; stroke:black;" x1="516" x2="465" y1="87" y2="87" />
      <path d="M375 79 A8 8 0 0 0 383 87" style="fill:none; stroke:black;" />
      <line style="fill:none; stroke:black;" x1="375" x2="375" y1="65" y2="80" />
      <path d="M515 87 A8 8 0 0 0 523 79" style="fill:none; stroke:black;" />
      <line style="fill:none; stroke:black;" x1="523" x2="523" y1="65" y2="80" />
      <line style="fill:none; stroke:black;" x1="433" x2="465" y1="87" y2="87" />
      <line style="fill:none; stroke:black;" x1="539" x2="563" y1="57" y2="57" />
      <line style="fill:none; stroke:black;" x1="712" x2="688" y1="57" y2="57" />
      <line style="fill:none; stroke:black;" x1="563" x2="571" y1="57" y2="57" />
      <line style="fill:none; stroke:black;" x1="689" x2="680" y1="57" y2="57" />
      <path d="M555 65 A8 8 0 0 0 547 57" style="fill:none; stroke:black;" />
      <path d="M704 57 A8 8 0 0 0 696 65" style="fill:none; stroke:black;" />
      <rect height="24" style="fill:none; stroke:black;" width="109" x="571" y="45" />
      <text style="fill:black; stroke:none;" x="573" xml:space="preserve" y="65">displayName</text>
      <line style="fill:none; stroke:black;" x1="571" x2="571" y1="57" y2="57" />
      <polygon points=" 571 57 565 54 565 60" style="fill:black; stroke:none;" />
      <line style="fill:none; stroke:black;" x1="563" x2="609" y1="87" y2="87" />
      <line style="fill:none; stroke:black;" x1="689" x2="641" y1="87" y2="87" />
      <path d="M555 79 A8 8 0 0 0 563 87" style="fill:none; stroke:black;" />
      <line style="fill:none; stroke:black;" x1="555" x2="555" y1="65" y2="80" />
      <path d="M688 87 A8 8 0 0 0 696 79" style="fill:none; stroke:black;" />
      <line style="fill:none; stroke:black;" x1="696" x2="696" y1="65" y2="80" />
      <line style="fill:none; stroke:black;" x1="609" x2="641" y1="87" y2="87" />
      <line style="fill:none; stroke:black;" x1="712" x2="720" y1="57" y2="57" />
      <line style="fill:none; stroke:black;" x1="723" x2="723" y1="57" y2="57" />
      <polygon points=" 723 57 717 54 717 60" style="fill:black; stroke:none;" />
    </g>
  </g>
</svg>
