<?xml version="1.0" encoding="ISO-8859-1"?>

<!DOCTYPE svg PUBLIC '-//W3C//DTD SVG 1.0//EN' 'http://www.w3.org/TR/2001/REC-SVG-20010904/DTD/svg10.dtd'>
<svg height="97" style="color-interpolation:auto; color-rendering:auto; fill:black; fill-opacity:1; font-family:&apos;Dialog&apos;; font-size:12; font-style:normal; font-weight:normal; image-rendering:auto; shape-rendering:auto; stroke:black; stroke-dasharray:none; stroke-dashoffset:0; stroke-linecap:square; stroke-linejoin:miter; stroke-miterlimit:10; stroke-opacity:1; stroke-width:1; text-rendering:auto;" width="1114" xmlns="http://www.w3.org/2000/svg" xmlns:xlink="http://www.w3.org/1999/xlink">
  <!--Generated by the Batik Graphics2D SVG Generator-->
  <defs id="genericDefs" />
  <g>
    <g style="fill:white; font-family:serif; stroke:white;">
      <rect height="125" style="stroke:none;" width="1157" x="0" y="0" />
      <text style="fill:black; font-size:14; stroke:none;" x="30" xml:space="preserve" y="10">address</text>
      <line style="fill:none; stroke:black;" x1="34" x2="50" y1="57" y2="57" />
      <line style="fill:none; stroke:black;" x1="50" x2="74" y1="57" y2="57" />
      <line style="fill:none; stroke:black;" x1="146" x2="122" y1="57" y2="57" />
      <line style="fill:none; stroke:black;" x1="74" x2="89" y1="57" y2="57" />
      <line style="fill:none; stroke:black;" x1="123" x2="107" y1="57" y2="57" />
      <path d="M66 65 A8 8 0 0 0 58 57" style="fill:none; stroke:black;" />
      <path d="M138 57 A8 8 0 0 0 130 65" style="fill:none; stroke:black;" />
      <rect height="24" style="fill:none; stroke:black;" width="18" x="89" y="45" />
      <text style="fill:black; stroke:none;" x="91" xml:space="preserve" y="65">id</text>
      <line style="fill:none; stroke:black;" x1="89" x2="89" y1="57" y2="57" />
      <polygon points=" 89 57 83 54 83 60" style="fill:black; stroke:none;" />
      <line style="fill:none; stroke:black;" x1="74" x2="82" y1="87" y2="87" />
      <line style="fill:none; stroke:black;" x1="123" x2="114" y1="87" y2="87" />
      <path d="M66 79 A8 8 0 0 0 74 87" style="fill:none; stroke:black;" />
      <line style="fill:none; stroke:black;" x1="66" x2="66" y1="65" y2="80" />
      <path d="M122 87 A8 8 0 0 0 130 79" style="fill:none; stroke:black;" />
      <line style="fill:none; stroke:black;" x1="130" x2="130" y1="65" y2="80" />
      <line style="fill:none; stroke:black;" x1="82" x2="114" y1="87" y2="87" />
      <line style="fill:none; stroke:black;" x1="146" x2="170" y1="57" y2="57" />
      <line style="fill:none; stroke:black;" x1="243" x2="219" y1="57" y2="57" />
      <line style="fill:none; stroke:black;" x1="170" x2="178" y1="57" y2="57" />
      <line style="fill:none; stroke:black;" x1="220" x2="211" y1="57" y2="57" />
      <path d="M162 65 A8 8 0 0 0 154 57" style="fill:none; stroke:black;" />
      <path d="M235 57 A8 8 0 0 0 227 65" style="fill:none; stroke:black;" />
      <rect height="24" style="fill:none; stroke:black;" width="33" x="178" y="45" />
      <text style="fill:black; stroke:none;" x="180" xml:space="preserve" y="65">city</text>
      <line style="fill:none; stroke:black;" x1="178" x2="178" y1="57" y2="57" />
      <polygon points=" 178 57 172 54 172 60" style="fill:black; stroke:none;" />
      <line style="fill:none; stroke:black;" x1="170" x2="178" y1="87" y2="87" />
      <line style="fill:none; stroke:black;" x1="220" x2="210" y1="87" y2="87" />
      <path d="M162 79 A8 8 0 0 0 170 87" style="fill:none; stroke:black;" />
      <line style="fill:none; stroke:black;" x1="162" x2="162" y1="65" y2="80" />
      <path d="M219 87 A8 8 0 0 0 227 79" style="fill:none; stroke:black;" />
      <line style="fill:none; stroke:black;" x1="227" x2="227" y1="65" y2="80" />
      <line style="fill:none; stroke:black;" x1="178" x2="210" y1="87" y2="87" />
      <line style="fill:none; stroke:black;" x1="243" x2="267" y1="57" y2="57" />
      <line style="fill:none; stroke:black;" x1="373" x2="349" y1="57" y2="57" />
      <line style="fill:none; stroke:black;" x1="267" x2="275" y1="57" y2="57" />
      <line style="fill:none; stroke:black;" x1="350" x2="341" y1="57" y2="57" />
      <path d="M259 65 A8 8 0 0 0 251 57" style="fill:none; stroke:black;" />
      <path d="M365 57 A8 8 0 0 0 357 65" style="fill:none; stroke:black;" />
      <rect height="24" style="fill:none; stroke:black;" width="66" x="275" y="45" />
      <text style="fill:black; stroke:none;" x="277" xml:space="preserve" y="65">country</text>
      <line style="fill:none; stroke:black;" x1="275" x2="275" y1="57" y2="57" />
      <polygon points=" 275 57 269 54 269 60" style="fill:black; stroke:none;" />
      <line style="fill:none; stroke:black;" x1="267" x2="292" y1="87" y2="87" />
      <line style="fill:none; stroke:black;" x1="350" x2="324" y1="87" y2="87" />
      <path d="M259 79 A8 8 0 0 0 267 87" style="fill:none; stroke:black;" />
      <line style="fill:none; stroke:black;" x1="259" x2="259" y1="65" y2="80" />
      <path d="M349 87 A8 8 0 0 0 357 79" style="fill:none; stroke:black;" />
      <line style="fill:none; stroke:black;" x1="357" x2="357" y1="65" y2="80" />
      <line style="fill:none; stroke:black;" x1="292" x2="324" y1="87" y2="87" />
      <line style="fill:none; stroke:black;" x1="373" x2="397" y1="57" y2="57" />
      <line style="fill:none; stroke:black;" x1="531" x2="507" y1="57" y2="57" />
      <line style="fill:none; stroke:black;" x1="397" x2="405" y1="57" y2="57" />
      <line style="fill:none; stroke:black;" x1="508" x2="499" y1="57" y2="57" />
      <path d="M389 65 A8 8 0 0 0 381 57" style="fill:none; stroke:black;" />
      <path d="M523 57 A8 8 0 0 0 515 65" style="fill:none; stroke:black;" />
      <rect height="24" style="fill:none; stroke:black;" width="94" x="405" y="45" />
      <text style="fill:black; stroke:none;" x="407" xml:space="preserve" y="65">postalCode</text>
      <line style="fill:none; stroke:black;" x1="405" x2="405" y1="57" y2="57" />
      <polygon points=" 405 57 399 54 399 60" style="fill:black; stroke:none;" />
      <line style="fill:none; stroke:black;" x1="397" x2="436" y1="87" y2="87" />
      <line style="fill:none; stroke:black;" x1="508" x2="468" y1="87" y2="87" />
      <path d="M389 79 A8 8 0 0 0 397 87" style="fill:none; stroke:black;" />
      <line style="fill:none; stroke:black;" x1="389" x2="389" y1="65" y2="80" />
      <path d="M507 87 A8 8 0 0 0 515 79" style="fill:none; stroke:black;" />
      <line style="fill:none; stroke:black;" x1="515" x2="515" y1="65" y2="80" />
      <line style="fill:none; stroke:black;" x1="436" x2="468" y1="87" y2="87" />
      <line style="fill:none; stroke:black;" x1="531" x2="555" y1="57" y2="57" />
      <line style="fill:none; stroke:black;" x1="730" x2="706" y1="57" y2="57" />
      <line style="fill:none; stroke:black;" x1="555" x2="563" y1="57" y2="57" />
      <line style="fill:none; stroke:black;" x1="707" x2="698" y1="57" y2="57" />
      <path d="M547 65 A8 8 0 0 0 539 57" style="fill:none; stroke:black;" />
      <path d="M722 57 A8 8 0 0 0 714 65" style="fill:none; stroke:black;" />
      <rect height="24" style="fill:none; stroke:black;" width="135" x="563" y="45" />
      <text style="fill:black; stroke:none;" x="565" xml:space="preserve" y="65">stateOrProvince</text>
      <line style="fill:none; stroke:black;" x1="563" x2="563" y1="57" y2="57" />
      <polygon points=" 563 57 557 54 557 60" style="fill:black; stroke:none;" />
      <line style="fill:none; stroke:black;" x1="555" x2="614" y1="87" y2="87" />
      <line style="fill:none; stroke:black;" x1="707" x2="646" y1="87" y2="87" />
      <path d="M547 79 A8 8 0 0 0 555 87" style="fill:none; stroke:black;" />
      <line style="fill:none; stroke:black;" x1="547" x2="547" y1="65" y2="80" />
      <path d="M706 87 A8 8 0 0 0 714 79" style="fill:none; stroke:black;" />
      <line style="fill:none; stroke:black;" x1="714" x2="714" y1="65" y2="80" />
      <line style="fill:none; stroke:black;" x1="614" x2="646" y1="87" y2="87" />
      <line style="fill:none; stroke:black;" x1="730" x2="754" y1="57" y2="57" />
      <line style="fill:none; stroke:black;" x1="845" x2="821" y1="57" y2="57" />
      <line style="fill:none; stroke:black;" x1="754" x2="762" y1="57" y2="57" />
      <line style="fill:none; stroke:black;" x1="822" x2="813" y1="57" y2="57" />
      <path d="M746 65 A8 8 0 0 0 738 57" style="fill:none; stroke:black;" />
      <path d="M837 57 A8 8 0 0 0 829 65" style="fill:none; stroke:black;" />
      <rect height="24" style="fill:none; stroke:black;" width="51" x="762" y="45" />
      <text style="fill:black; stroke:none;" x="764" xml:space="preserve" y="65">street</text>
      <line style="fill:none; stroke:black;" x1="762" x2="762" y1="57" y2="57" />
      <polygon points=" 762 57 756 54 756 60" style="fill:black; stroke:none;" />
      <line style="fill:none; stroke:black;" x1="754" x2="771" y1="87" y2="87" />
      <line style="fill:none; stroke:black;" x1="822" x2="803" y1="87" y2="87" />
      <path d="M746 79 A8 8 0 0 0 754 87" style="fill:none; stroke:black;" />
      <line style="fill:none; stroke:black;" x1="746" x2="746" y1="65" y2="80" />
      <path d="M821 87 A8 8 0 0 0 829 79" style="fill:none; stroke:black;" />
      <line style="fill:none; stroke:black;" x1="829" x2="829" y1="65" y2="80" />
      <line style="fill:none; stroke:black;" x1="771" x2="803" y1="87" y2="87" />
      <line style="fill:none; stroke:black;" x1="845" x2="869" y1="57" y2="57" />
      <line style="fill:none; stroke:black;" x1="969" x2="945" y1="57" y2="57" />
      <line style="fill:none; stroke:black;" x1="869" x2="877" y1="57" y2="57" />
      <line style="fill:none; stroke:black;" x1="946" x2="937" y1="57" y2="57" />
      <path d="M861 65 A8 8 0 0 0 853 57" style="fill:none; stroke:black;" />
      <path d="M961 57 A8 8 0 0 0 953 65" style="fill:none; stroke:black;" />
      <rect height="24" style="fill:none; stroke:black;" width="60" x="877" y="45" />
      <text style="fill:black; stroke:none;" x="879" xml:space="preserve" y="65">street2</text>
      <line style="fill:none; stroke:black;" x1="877" x2="877" y1="57" y2="57" />
      <polygon points=" 877 57 871 54 871 60" style="fill:black; stroke:none;" />
      <line style="fill:none; stroke:black;" x1="869" x2="891" y1="87" y2="87" />
      <line style="fill:none; stroke:black;" x1="946" x2="923" y1="87" y2="87" />
      <path d="M861 79 A8 8 0 0 0 869 87" style="fill:none; stroke:black;" />
      <line style="fill:none; stroke:black;" x1="861" x2="861" y1="65" y2="80" />
      <path d="M945 87 A8 8 0 0 0 953 79" style="fill:none; stroke:black;" />
      <line style="fill:none; stroke:black;" x1="953" x2="953" y1="65" y2="80" />
      <line style="fill:none; stroke:black;" x1="891" x2="923" y1="87" y2="87" />
      <line style="fill:none; stroke:black;" x1="969" x2="993" y1="57" y2="57" />
      <line style="fill:none; stroke:black;" x1="1093" x2="1069" y1="57" y2="57" />
      <line style="fill:none; stroke:black;" x1="993" x2="1001" y1="57" y2="57" />
      <line style="fill:none; stroke:black;" x1="1070" x2="1061" y1="57" y2="57" />
      <path d="M985 65 A8 8 0 0 0 977 57" style="fill:none; stroke:black;" />
      <path d="M1085 57 A8 8 0 0 0 1077 65" style="fill:none; stroke:black;" />
      <rect height="24" style="fill:none; stroke:black;" width="60" x="1001" y="45" />
      <text style="fill:black; stroke:none;" x="1003" xml:space="preserve" y="65">street3</text>
      <line style="fill:none; stroke:black;" x1="1001" x2="1001" y1="57" y2="57" />
      <polygon points=" 1001 57 995 54 995 60" style="fill:black; stroke:none;" />
      <line style="fill:none; stroke:black;" x1="993" x2="1015" y1="87" y2="87" />
      <line style="fill:none; stroke:black;" x1="1070" x2="1047" y1="87" y2="87" />
      <path d="M985 79 A8 8 0 0 0 993 87" style="fill:none; stroke:black;" />
      <line style="fill:none; stroke:black;" x1="985" x2="985" y1="65" y2="80" />
      <path d="M1069 87 A8 8 0 0 0 1077 79" style="fill:none; stroke:black;" />
      <line style="fill:none; stroke:black;" x1="1077" x2="1077" y1="65" y2="80" />
      <line style="fill:none; stroke:black;" x1="1015" x2="1047" y1="87" y2="87" />
      <line style="fill:none; stroke:black;" x1="1093" x2="1101" y1="57" y2="57" />
      <line style="fill:none; stroke:black;" x1="1104" x2="1104" y1="57" y2="57" />
      <polygon points=" 1104 57 1098 54 1098 60" style="fill:black; stroke:none;" />
    </g>
  </g>
</svg>
