<?xml version="1.0" encoding="ISO-8859-1"?>

<!DOCTYPE svg PUBLIC '-//W3C//DTD SVG 1.0//EN' 'http://www.w3.org/TR/2001/REC-SVG-20010904/DTD/svg10.dtd'>
<svg height="97" style="color-interpolation:auto; color-rendering:auto; fill:black; fill-opacity:1; font-family:&apos;Dialog&apos;; font-size:12; font-style:normal; font-weight:normal; image-rendering:auto; shape-rendering:auto; stroke:black; stroke-dasharray:none; stroke-dashoffset:0; stroke-linecap:square; stroke-linejoin:miter; stroke-miterlimit:10; stroke-opacity:1; stroke-width:1; text-rendering:auto;" width="586" xmlns="http://www.w3.org/2000/svg" xmlns:xlink="http://www.w3.org/1999/xlink">
  <!--Generated by the Batik Graphics2D SVG Generator-->
  <defs id="genericDefs" />
  <g>
    <g style="fill:white; font-family:serif; stroke:white;">
      <rect height="125" style="stroke:none;" width="629" x="0" y="0" />
      <text style="fill:black; font-size:14; stroke:none;" x="30" xml:space="preserve" y="10">Contributor</text>
      <line style="fill:none; stroke:black;" x1="34" x2="50" y1="57" y2="57" />
      <rect height="24" style="fill:none; stroke:black;" width="49" x="50" y="45" />
      <text style="fill:black; stroke:none;" x="52" xml:space="preserve" y="65">agent</text>
      <line style="fill:none; stroke:black;" x1="50" x2="50" y1="57" y2="57" />
      <polygon points=" 50 57 44 54 44 60" style="fill:black; stroke:none;" />
      <line style="fill:none; stroke:black;" x1="99" x2="123" y1="57" y2="57" />
      <line style="fill:none; stroke:black;" x1="264" x2="240" y1="57" y2="57" />
      <line style="fill:none; stroke:black;" x1="123" x2="131" y1="57" y2="57" />
      <line style="fill:none; stroke:black;" x1="241" x2="232" y1="57" y2="57" />
      <path d="M115 65 A8 8 0 0 0 107 57" style="fill:none; stroke:black;" />
      <path d="M256 57 A8 8 0 0 0 248 65" style="fill:none; stroke:black;" />
      <rect height="24" style="fill:none; stroke:black;" width="101" x="131" y="45" />
      <text style="fill:black; stroke:none;" x="133" xml:space="preserve" y="65">familyName</text>
      <line style="fill:none; stroke:black;" x1="131" x2="131" y1="57" y2="57" />
      <polygon points=" 131 57 125 54 125 60" style="fill:black; stroke:none;" />
      <line style="fill:none; stroke:black;" x1="123" x2="165" y1="87" y2="87" />
      <line style="fill:none; stroke:black;" x1="241" x2="197" y1="87" y2="87" />
      <path d="M115 79 A8 8 0 0 0 123 87" style="fill:none; stroke:black;" />
      <line style="fill:none; stroke:black;" x1="115" x2="115" y1="65" y2="80" />
      <path d="M240 87 A8 8 0 0 0 248 79" style="fill:none; stroke:black;" />
      <line style="fill:none; stroke:black;" x1="248" x2="248" y1="65" y2="80" />
      <line style="fill:none; stroke:black;" x1="165" x2="197" y1="87" y2="87" />
      <line style="fill:none; stroke:black;" x1="264" x2="288" y1="57" y2="57" />
      <line style="fill:none; stroke:black;" x1="423" x2="399" y1="57" y2="57" />
      <line style="fill:none; stroke:black;" x1="288" x2="296" y1="57" y2="57" />
      <line style="fill:none; stroke:black;" x1="400" x2="391" y1="57" y2="57" />
      <path d="M280 65 A8 8 0 0 0 272 57" style="fill:none; stroke:black;" />
      <path d="M415 57 A8 8 0 0 0 407 65" style="fill:none; stroke:black;" />
      <rect height="24" style="fill:none; stroke:black;" width="95" x="296" y="45" />
      <text style="fill:black; stroke:none;" x="298" xml:space="preserve" y="65">givenName</text>
      <line style="fill:none; stroke:black;" x1="296" x2="296" y1="57" y2="57" />
      <polygon points=" 296 57 290 54 290 60" style="fill:black; stroke:none;" />
      <line style="fill:none; stroke:black;" x1="288" x2="327" y1="87" y2="87" />
      <line style="fill:none; stroke:black;" x1="400" x2="359" y1="87" y2="87" />
      <path d="M280 79 A8 8 0 0 0 288 87" style="fill:none; stroke:black;" />
      <line style="fill:none; stroke:black;" x1="280" x2="280" y1="65" y2="80" />
      <path d="M399 87 A8 8 0 0 0 407 79" style="fill:none; stroke:black;" />
      <line style="fill:none; stroke:black;" x1="407" x2="407" y1="65" y2="80" />
      <line style="fill:none; stroke:black;" x1="327" x2="359" y1="87" y2="87" />
      <line style="fill:none; stroke:black;" x1="423" x2="447" y1="57" y2="57" />
      <line style="fill:none; stroke:black;" x1="565" x2="541" y1="57" y2="57" />
      <line style="fill:none; stroke:black;" x1="447" x2="455" y1="57" y2="57" />
      <line style="fill:none; stroke:black;" x1="542" x2="533" y1="57" y2="57" />
      <path d="M439 65 A8 8 0 0 0 431 57" style="fill:none; stroke:black;" />
      <path d="M557 57 A8 8 0 0 0 549 65" style="fill:none; stroke:black;" />
      <rect height="24" style="fill:none; stroke:black;" width="78" x="455" y="45" />
      <text style="fill:black; stroke:none;" x="457" xml:space="preserve" y="65">language</text>
      <line style="fill:none; stroke:black;" x1="455" x2="455" y1="57" y2="57" />
      <polygon points=" 455 57 449 54 449 60" style="fill:black; stroke:none;" />
      <line style="fill:none; stroke:black;" x1="447" x2="478" y1="87" y2="87" />
      <line style="fill:none; stroke:black;" x1="542" x2="510" y1="87" y2="87" />
      <path d="M439 79 A8 8 0 0 0 447 87" style="fill:none; stroke:black;" />
      <line style="fill:none; stroke:black;" x1="439" x2="439" y1="65" y2="80" />
      <path d="M541 87 A8 8 0 0 0 549 79" style="fill:none; stroke:black;" />
      <line style="fill:none; stroke:black;" x1="549" x2="549" y1="65" y2="80" />
      <line style="fill:none; stroke:black;" x1="478" x2="510" y1="87" y2="87" />
      <line style="fill:none; stroke:black;" x1="565" x2="573" y1="57" y2="57" />
      <line style="fill:none; stroke:black;" x1="576" x2="576" y1="57" y2="57" />
      <polygon points=" 576 57 570 54 570 60" style="fill:black; stroke:none;" />
    </g>
  </g>
</svg>
